<svg width="192" height="192" viewBox="0 0 192 192" fill="none" xmlns="http://www.w3.org/2000/svg">
<rect width="192" height="192" fill="white"/>
<path fill-rule="evenodd" clip-rule="evenodd" d="M130.357 82.6377C130.253 81.3467 130.233 80.0418 130.184 78.7232C130.219 76.2586 130.143 71.3707 130.088 64.0664C130.06 63.5279 130.074 63.1896 130.129 63.0378C130.184 62.8928 130.426 62.6097 130.854 62.1955C130.84 68.4503 130.888 73.7249 130.999 78.0052C131.102 82.2925 131.448 85.4199 132.021 87.3806L132.048 88.2988C131.075 86.4486 130.509 84.5638 130.357 82.6377ZM128.596 89.6727C124.143 90.1559 119.732 91.0603 115.935 92.7587C97.8261 100.891 103.839 107.623 103.839 107.623C103.349 106.414 103.094 103.08 106.373 102.652C111.62 101.975 111.364 106.753 111.199 107.623C110.412 111.862 104.84 111.095 103.508 109.597C102.479 108.686 100.933 105.841 101.63 101.416C101.83 100.104 102.1 98.6614 102.638 97.1081H101.485L101.319 58.5158L95.3959 62.1886L95.6652 109.942C95.6652 109.942 95.6514 115.451 95.5754 117.771C95.4926 120.091 95.2164 122.031 94.7539 123.591C94.3258 125.531 93.6216 127.374 92.6344 129.107C91.6471 130.84 90.0109 132.525 88.4438 133.512C85.7306 135.279 83.6525 136.025 81.25 136.37L79.8416 135.493C81.7471 132.752 82.6101 130.605 83.1278 128.52C83.6456 126.435 83.9149 124.171 83.9287 121.734V120.588L83.6042 53.6969C83.3419 51.1494 83.1209 50.0586 82.3822 48.3326C80.9601 45.0188 76.2793 42.6508 74.146 43.928C76.1757 43.7692 77.8188 45.7161 76.2517 48.8159C74.5188 52.2609 69.9347 51.0251 68.7817 48.7745C66.828 44.9636 70.197 42.0916 73.5523 42.0916C81.823 42.0916 87.6982 46.3167 90.6392 48.1393C91.585 48.6916 97.4533 52.4059 99.3794 53.6279C98.9376 54.1249 98.4612 54.8015 97.9503 55.6645C97.4394 56.5344 97.0114 57.2317 96.5212 58.2465C99.3656 57.3007 101.299 55.2779 101.299 55.2779L101.216 45.937C101.195 45.3295 101.361 45.0188 101.713 45.0119C102.058 45.0119 102.244 45.3157 102.258 45.9232L102.327 54.3873C102.327 54.3873 106.166 50.8249 108.437 47.8425C110.709 44.8531 112.421 41.7878 112.421 41.7878C112.421 41.7878 119.249 49.5408 122.079 52.0124C125.918 55.3676 131.6 57.6873 131.6 57.6873C131.6 57.6873 129.867 59.5651 128.879 62.23C126.953 69.3133 128.907 86.5936 129.011 87.1044C129.114 87.6084 129.452 88.0779 130.025 88.5197L128.596 89.6727ZM97.5568 62.1955L99.7108 60.8285C99.7108 60.8285 99.6349 109.342 99.7108 111.855C100.242 129.604 93.4421 133.008 92.234 133.885C91.0258 134.755 87.7534 136.197 85.7375 136.232C88.2436 135.176 90.3078 133.753 91.875 132.497C95.0576 129.936 96.7284 123.874 96.9009 122.721C97.6466 117.654 97.5844 113.18 97.5913 109.21C97.6051 105.248 97.5706 62.8099 97.5568 62.1955ZM102.721 127.34C102.721 145.635 87.781 149.28 86.276 149.612C80.822 150.813 75.2506 149.529 72.641 148.624C70.0244 147.72 67.2905 146.519 64.4254 145.02C64.0319 145.055 63.9698 145.228 63.9422 145.455C66.1238 146.954 65.2677 149.453 63.5486 150.04C60.9252 150.93 58.9576 148.113 60.4903 146.125C61.2428 145.428 71.8953 136.218 71.8953 136.218C71.8953 136.218 75.6786 140.022 81.4847 141.61C90.1904 143.999 94.6503 140.264 95.1405 139.974C96.0104 139.47 96.611 138.683 96.611 138.683C96.611 138.683 93.1246 139.85 92.1373 140.153C90.3907 140.699 88.1814 140.809 87.0975 140.864C83.7699 140.954 81.8852 140.423 79.5862 139.359C77.2596 138.282 74.7397 136.653 73.3037 134.761V133.615C74.0355 134.071 78.6473 139.718 87.7327 139.159C92.5308 138.959 95.4166 137.247 97.0874 135.666C102.99 129.86 101.561 112.683 101.561 112.683H102.721V127.34ZM79.2134 80.5803C79.4757 81.7195 80.249 82.9414 81.0912 83.8113L81.326 84.985C80.8013 84.4327 78.8682 82.9138 78.3435 79.3238C78.1985 78.309 78.3435 77.2527 78.7439 76.155C78.7301 78.1157 78.951 79.4412 79.2134 80.5803ZM82.6791 108.12C82.1613 107.222 80.9739 104.84 79.0408 104.067C79.4274 104.033 80.5044 104.095 81.3674 104.992C82.3822 106.035 82.6791 108.12 82.6791 108.12ZM81.9473 95.3407C81.9473 95.3407 81.6159 94.2982 80.7115 93.5871C80.1592 93.1522 78.6749 92.3306 78.6749 92.3306C78.6749 92.3306 79.7864 92.2616 81.1879 93.3041C82.3822 94.1947 82.7067 95.3407 82.7067 95.3407H81.9473ZM70.6941 83.7285C70.8736 77.0387 75.3956 72.0403 79.5862 71.6192C82.1199 71.2395 81.7609 73.4211 81.4157 74.0217C80.5044 75.6441 78.4747 74.1736 78.0259 75.0297C75.7477 79.9314 79.4205 85.2473 81.3605 87.2494C81.7402 87.636 80.9462 90.6116 76.6106 92.5446C77.5427 92.6413 79.386 93.3179 80.2766 94.7815C83.9977 100.926 77.9431 104.088 77.9431 104.088C77.9431 104.088 82.0992 105.966 82.1682 112.89C82.2234 118.137 78.3987 122.825 72.4891 124.696L69.4721 124.744C69.4307 124.357 70.266 123.853 70.7493 123.708C71.2257 123.563 74.1943 120.926 74.077 115.168C74.0148 112.207 70.0106 110.881 70.0106 110.881C70.0106 110.881 73.1864 106.981 75.0297 104.543C74.2979 104.53 68.6713 104.661 68.6229 98.33C68.5815 93.5457 73.4556 92.6206 74.001 92.5999C72.1094 90.6599 70.5836 87.7051 70.6941 83.7285ZM116.908 42.9753C116.977 43.0581 117.032 43.2929 117.074 43.6795L118.116 43.6657C119.021 44.6667 120.056 45.8542 121.23 47.2349C122.411 48.6088 124.04 50.0448 126.132 51.5429C126.477 51.9571 126.946 52.2954 127.54 52.5371C128.134 52.7856 128.955 53.4208 130.012 54.4425C130.398 54.4011 130.667 54.4287 130.819 54.5185C130.964 54.6151 131.316 54.8775 131.896 55.3124L130.854 55.3262C129.818 54.8429 128.631 54.1526 127.292 53.262C125.952 52.3645 124.516 51.467 122.984 50.5488C120.94 48.595 119.394 47.0692 118.344 45.9784C117.302 44.8807 116.515 43.8521 115.99 42.8855C116.535 42.8648 116.839 42.8924 116.908 42.9753ZM95.9966 14C50.7145 14 14 50.7145 14 95.9965C14 141.286 50.7145 178 95.9966 178C141.286 178 178 141.286 178 95.9965C178 50.7145 141.286 14 95.9966 14Z" fill="#FF0000"/>
<path fill-rule="evenodd" clip-rule="evenodd" d="M91.7774 112.218L91.7567 110.182C91.7567 110.182 87.1795 110.168 85.709 110.175C85.7228 110.789 85.7159 112.232 85.7159 112.232L91.7774 112.218Z" fill="#FF0000"/>
<path fill-rule="evenodd" clip-rule="evenodd" d="M91.6426 70.5793L91.6564 68.7981L85.6915 68.8119L85.6777 70.5862L91.6426 70.5793Z" fill="#FF0000"/>
<path fill-rule="evenodd" clip-rule="evenodd" d="M85.4854 125.856C85.4854 125.856 90.3111 125.953 90.3802 125.925C90.8979 125.532 91.1603 123.978 91.1603 123.978L85.7063 123.965L85.4854 125.856Z" fill="#FF0000"/>
<path fill-rule="evenodd" clip-rule="evenodd" d="M91.6447 65.3506L85.666 65.3644V67.332L91.6585 67.3182L91.6447 65.3506Z" fill="#FF0000"/>
<path fill-rule="evenodd" clip-rule="evenodd" d="M88.8681 49.5675L87.1767 48.1108H83.9043L84.5947 49.5399L88.8681 49.5675Z" fill="#FF0000"/>
<path fill-rule="evenodd" clip-rule="evenodd" d="M83.2637 132.414L84.8101 132.393L86.7846 130.868L84.1197 130.861L83.2637 132.414Z" fill="#FF0000"/>
<path fill-rule="evenodd" clip-rule="evenodd" d="M85.2558 127.412L84.5654 129.4L87.8033 129.407C87.8033 129.407 89.474 127.806 89.5155 127.426C88.9701 127.454 85.2558 127.412 85.2558 127.412Z" fill="#FF0000"/>
<path fill-rule="evenodd" clip-rule="evenodd" d="M85.7503 105.258L91.7774 105.272L91.8188 103.277L85.7158 103.298L85.7503 105.258Z" fill="#FF0000"/>
<path fill-rule="evenodd" clip-rule="evenodd" d="M91.8467 115.574C91.8467 115.574 91.8053 113.614 91.8122 113.628C91.8191 113.634 85.6885 113.621 85.6885 113.621L85.6954 115.561L91.8467 115.574Z" fill="#FF0000"/>
<path fill-rule="evenodd" clip-rule="evenodd" d="M85.6602 63.7457L91.632 63.7802L91.6458 61.9023L85.6809 61.9092L85.6602 63.7457Z" fill="#FF0000"/>
<path fill-rule="evenodd" clip-rule="evenodd" d="M85.6924 99.8293L85.7131 101.894L91.8161 101.907L91.7953 99.8432L85.6924 99.8293Z" fill="#FF0000"/>
<path fill-rule="evenodd" clip-rule="evenodd" d="M91.757 108.589L91.7984 106.725L85.7023 106.745L85.6816 108.658L91.757 108.589Z" fill="#FF0000"/>
<path fill-rule="evenodd" clip-rule="evenodd" d="M70.1968 99.2255L79.4962 99.267C80.0209 98.4799 79.6965 97.182 79.6965 97.182L70.114 97.1199C70.114 97.1199 69.8378 97.4098 69.8792 98.2245C69.9345 99.1496 70.1968 99.2255 70.1968 99.2255Z" fill="#FF0000"/>
<path fill-rule="evenodd" clip-rule="evenodd" d="M91.6213 72.2463H85.6633L85.6426 74.0689L91.6696 74.0828L91.6213 72.2463Z" fill="#FF0000"/>
<path fill-rule="evenodd" clip-rule="evenodd" d="M76.1573 115.251L79.9199 115.244C79.9199 115.244 80.4101 114.347 80.4515 113.297H76.0469L76.1573 115.251Z" fill="#FF0000"/>
<path fill-rule="evenodd" clip-rule="evenodd" d="M91.7363 96.3809H85.6816L85.6954 98.4313L91.757 98.4451L91.7363 96.3809Z" fill="#FF0000"/>
<path fill-rule="evenodd" clip-rule="evenodd" d="M76.2778 104.621L73.4473 108.425C73.4473 108.425 76.7335 108.204 79.205 108.17C77.8726 105.063 76.2778 104.621 76.2778 104.621Z" fill="#FF0000"/>
<path fill-rule="evenodd" clip-rule="evenodd" d="M75.7061 118.382L78.364 118.389C78.364 118.389 79.1649 117.505 79.4824 116.545C78.9992 116.545 76.0858 116.538 76.0858 116.538L75.7061 118.382Z" fill="#FF0000"/>
<path fill-rule="evenodd" clip-rule="evenodd" d="M78.8801 95.6407C78.8663 95.6269 78.383 95.04 77.3681 94.3773C76.6639 93.9078 75.8355 93.6248 75.8355 93.6248L73.9922 93.6455C73.9922 93.6455 73.2742 93.9768 72.4043 94.4946C71.3756 95.1022 70.8164 95.6683 70.8164 95.6683C70.8164 95.6683 78.9077 95.6683 78.8801 95.6407Z" fill="#FF0000"/>
<path fill-rule="evenodd" clip-rule="evenodd" d="M73.4043 122.5H74.3984L77.7537 119.635H75.22L73.4043 122.5Z" fill="#FF0000"/>
<path fill-rule="evenodd" clip-rule="evenodd" d="M75.4989 111.706L80.297 111.672L79.9656 109.684L73.1309 109.725L75.4989 111.706Z" fill="#FF0000"/>
<path fill-rule="evenodd" clip-rule="evenodd" d="M77.7365 85.6245L72.4551 85.659L72.9314 87.7716L79.1242 87.7233L77.7365 85.6245Z" fill="#FF0000"/>
<path fill-rule="evenodd" clip-rule="evenodd" d="M76.5234 82.1199C76.5234 82.1199 72.4847 82.1337 72.2568 82.113L72.319 84.2601H77.3518L76.5234 82.1199Z" fill="#FF0000"/>
<path fill-rule="evenodd" clip-rule="evenodd" d="M77.486 89.6407C77.5757 89.4957 77.5895 89.3438 77.5343 89.185L74.6416 89.1367L74.6485 90.1654L76.7404 90.1378C76.9682 90.1654 77.2167 89.9997 77.486 89.6407Z" fill="#FF0000"/>
<path fill-rule="evenodd" clip-rule="evenodd" d="M72.6688 102.653C73.7872 102.722 76.3417 102.701 77.5636 102.701C78.5923 101.866 79.186 100.768 79.1998 100.616L70.6943 100.665C70.9015 101.334 71.9715 102.349 72.6688 102.653Z" fill="#FF0000"/>
<path fill-rule="evenodd" clip-rule="evenodd" d="M76.8213 75.0884L75.2472 75.1022L73.7422 77.0629L76.055 77.0353L76.8213 75.0884Z" fill="#FF0000"/>
<path fill-rule="evenodd" clip-rule="evenodd" d="M75.9421 78.608L73.1599 78.6011L72.4902 80.7067L76.2597 80.6998L75.9421 78.608Z" fill="#FF0000"/>
<path fill-rule="evenodd" clip-rule="evenodd" d="M109.306 90.9303C109.685 90.9648 111.632 91.0063 112.178 90.9855C112.647 90.951 112.985 90.9027 113.565 90.4678C114.152 90.0259 116.638 89.0042 116.638 89.0042L111.86 89.0249C111.86 89.0249 110.051 89.5979 109.306 90.9303Z" fill="#FF0000"/>
<path fill-rule="evenodd" clip-rule="evenodd" d="M118.732 85.3525C117.33 85.3663 113.823 87.3339 113.823 87.3339L125.076 87.3408L125.049 85.3318C125.049 85.3318 119.767 85.3042 118.732 85.3525Z" fill="#FF0000"/>
<path fill-rule="evenodd" clip-rule="evenodd" d="M118.317 73.6948L123.971 73.7086L123.923 71.8722L118.269 71.8584L118.317 73.6948Z" fill="#FF0000"/>
<path fill-rule="evenodd" clip-rule="evenodd" d="M124.189 67.0528L124.286 65.0852L118.272 65.099L118.39 67.0183L124.189 67.0528Z" fill="#FF0000"/>
<path fill-rule="evenodd" clip-rule="evenodd" d="M123.971 70.0076L123.923 68.1711C123.46 68.1988 118.324 68.2264 118.324 68.2264L118.269 70.0076H123.971Z" fill="#FF0000"/>
<path fill-rule="evenodd" clip-rule="evenodd" d="M106.304 94.431C106.794 94.935 106.925 94.7969 107.512 94.3551C108.099 93.9202 108.996 93.0848 110.453 92.208L108.085 92.2149C107.36 92.6775 106.421 93.5543 106.304 94.431Z" fill="#FF0000"/>
<path fill-rule="evenodd" clip-rule="evenodd" d="M115.101 83.6552L115.039 61.3282L106.933 52.7744L102.577 57.2067V95.1224L103.654 95.1569C106.768 88.1633 115.101 83.6552 115.101 83.6552Z" fill="#FF0000"/>
<path fill-rule="evenodd" clip-rule="evenodd" d="M118.411 83.9157H124.031V81.7893L118.384 81.8376L118.411 83.9157Z" fill="#FF0000"/>
<path fill-rule="evenodd" clip-rule="evenodd" d="M85.6738 92.9336L85.7014 94.9978H91.8182L91.7837 92.9474L85.6738 92.9336Z" fill="#FF0000"/>
<path fill-rule="evenodd" clip-rule="evenodd" d="M124.988 61.3176C124.028 61.3245 118.194 61.3176 118.194 61.3176L118.208 63.2369L124.283 63.23C124.283 63.23 125.706 61.3107 124.988 61.3176Z" fill="#FF0000"/>
<path fill-rule="evenodd" clip-rule="evenodd" d="M117.943 53.1316L115.168 50.4529L108.713 50.4736L111.619 53.1799L117.943 53.1316Z" fill="#FF0000"/>
<path fill-rule="evenodd" clip-rule="evenodd" d="M118.276 80.593L124.02 80.6068L123.992 78.4805L118.2 78.4874L118.276 80.593Z" fill="#FF0000"/>
<path fill-rule="evenodd" clip-rule="evenodd" d="M118.266 76.9929C118.266 76.9929 122.581 76.9998 123.968 76.986L123.934 75.0322H118.252L118.266 76.9929Z" fill="#FF0000"/>
<path fill-rule="evenodd" clip-rule="evenodd" d="M115.396 58.1399L117.522 60.066L126.09 60.0177L126.883 59.065L123.038 58.1191L115.396 58.1399Z" fill="#FF0000"/>
<path fill-rule="evenodd" clip-rule="evenodd" d="M85.6917 57.0713H91.9741L92.7888 55.014L85.6641 55.0071L85.6917 57.0713Z" fill="#FF0000"/>
<path fill-rule="evenodd" clip-rule="evenodd" d="M85.6982 118.905L91.8012 118.912L91.8702 117.082L85.6982 117.069V118.905Z" fill="#FF0000"/>
<path fill-rule="evenodd" clip-rule="evenodd" d="M84.9492 51.5655L85.7017 53.5814L92.4882 53.5607L89.8578 51.5586L84.9492 51.5655Z" fill="#FF0000"/>
<path fill-rule="evenodd" clip-rule="evenodd" d="M85.7712 75.6946L85.7021 77.6553L91.7292 77.6691L91.6947 75.7222L85.7712 75.6946Z" fill="#FF0000"/>
<path fill-rule="evenodd" clip-rule="evenodd" d="M85.6816 122.996L91.3082 123.023L91.681 120.517L85.7023 120.524L85.6816 122.996Z" fill="#FF0000"/>
<path fill-rule="evenodd" clip-rule="evenodd" d="M85.7599 81.2409L91.6696 81.2478L91.7317 79.1421L85.7461 79.1628L85.7599 81.2409Z" fill="#FF0000"/>
<path fill-rule="evenodd" clip-rule="evenodd" d="M85.6641 58.4546V60.3946L91.7256 60.4567L91.698 58.4822L85.6641 58.4546Z" fill="#FF0000"/>
<path fill-rule="evenodd" clip-rule="evenodd" d="M91.7087 82.6037L85.6816 82.5898L85.6954 84.7645L91.7294 84.6679L91.7087 82.6037Z" fill="#FF0000"/>
<path fill-rule="evenodd" clip-rule="evenodd" d="M91.7211 89.4856L85.7424 89.4925L85.7217 91.536L91.7418 91.5498L91.7211 89.4856Z" fill="#FF0000"/>
<path fill-rule="evenodd" clip-rule="evenodd" d="M114.376 56.3993L121.873 56.3095L119.022 54.1763L112.298 54.2108L114.376 56.3993Z" fill="#FF0000"/>
<path fill-rule="evenodd" clip-rule="evenodd" d="M85.6993 88.1154H91.7125L91.7539 86.0374L85.6924 86.0581L85.6993 88.1154Z" fill="#FF0000"/>
<path fill-rule="evenodd" clip-rule="evenodd" d="M111.857 45.9316C111.837 46.1595 109.393 48.9279 109.393 48.9279L114.26 48.8658L111.857 45.9316Z" fill="#FF0000"/>
</svg>
