<svg width="468" height="336" viewBox="0 0 468 336" fill="none" xmlns="http://www.w3.org/2000/svg">
<rect y="65" width="197" height="197" fill="white"/>
<path d="M50.84 142.424C50.472 141.976 50.016 141.632 49.472 141.392C48.944 141.152 48.328 141.032 47.624 141.032C46.92 141.032 46.264 141.168 45.656 141.44C45.064 141.712 44.544 142.096 44.096 142.592C43.664 143.072 43.32 143.648 43.064 144.32C42.824 144.992 42.704 145.72 42.704 146.504C42.704 147.304 42.824 148.04 43.064 148.712C43.32 149.368 43.664 149.944 44.096 150.44C44.528 150.92 45.032 151.296 45.608 151.568C46.2 151.84 46.832 151.976 47.504 151.976C48.272 151.976 48.952 151.816 49.544 151.496C50.136 151.176 50.624 150.728 51.008 150.152L54.128 152.48C53.408 153.488 52.496 154.232 51.392 154.712C50.288 155.192 49.152 155.432 47.984 155.432C46.656 155.432 45.432 155.224 44.312 154.808C43.192 154.392 42.224 153.8 41.408 153.032C40.592 152.248 39.952 151.304 39.488 150.2C39.04 149.096 38.816 147.864 38.816 146.504C38.816 145.144 39.04 143.912 39.488 142.808C39.952 141.704 40.592 140.768 41.408 140C42.224 139.216 43.192 138.616 44.312 138.2C45.432 137.784 46.656 137.576 47.984 137.576C48.464 137.576 48.96 137.624 49.472 137.72C50 137.8 50.512 137.936 51.008 138.128C51.52 138.32 52.008 138.576 52.472 138.896C52.936 139.216 53.352 139.608 53.72 140.072L50.84 142.424ZM66.9337 155H63.4777V153.416H63.4297C63.3017 153.64 63.1337 153.864 62.9257 154.088C62.7337 154.312 62.4937 154.512 62.2057 154.688C61.9177 154.864 61.5897 155.008 61.2217 155.12C60.8537 155.232 60.4537 155.288 60.0217 155.288C59.1097 155.288 58.3657 155.152 57.7897 154.88C57.2297 154.592 56.7897 154.2 56.4697 153.704C56.1657 153.208 55.9577 152.624 55.8457 151.952C55.7497 151.28 55.7017 150.552 55.7017 149.768V143.336H59.3017V149.048C59.3017 149.384 59.3097 149.736 59.3257 150.104C59.3577 150.456 59.4297 150.784 59.5417 151.088C59.6697 151.392 59.8537 151.64 60.0937 151.832C60.3497 152.024 60.7097 152.12 61.1737 152.12C61.6377 152.12 62.0137 152.04 62.3017 151.88C62.5897 151.704 62.8057 151.48 62.9497 151.208C63.1097 150.92 63.2137 150.6 63.2617 150.248C63.3097 149.896 63.3337 149.528 63.3337 149.144V143.336H66.9337V155ZM76.0829 146.768C75.5549 146.112 74.8589 145.784 73.9949 145.784C73.6909 145.784 73.3949 145.856 73.1069 146C72.8189 146.144 72.6749 146.392 72.6749 146.744C72.6749 147.032 72.8189 147.248 73.1069 147.392C73.4109 147.52 73.7869 147.64 74.2349 147.752C74.6989 147.848 75.1869 147.96 75.6989 148.088C76.2269 148.2 76.7149 148.384 77.1629 148.64C77.6269 148.896 78.0029 149.248 78.2909 149.696C78.5949 150.128 78.7469 150.712 78.7469 151.448C78.7469 152.2 78.5789 152.824 78.2429 153.32C77.9229 153.8 77.5069 154.192 76.9949 154.496C76.4829 154.784 75.9069 154.984 75.2669 155.096C74.6269 155.224 73.9949 155.288 73.3709 155.288C72.5549 155.288 71.7309 155.176 70.8989 154.952C70.0669 154.712 69.3629 154.296 68.7869 153.704L70.9709 151.28C71.3069 151.696 71.6749 152.016 72.0749 152.24C72.4909 152.448 72.9709 152.552 73.5149 152.552C73.9309 152.552 74.3069 152.496 74.6429 152.384C74.9789 152.256 75.1469 152.032 75.1469 151.712C75.1469 151.408 74.9949 151.184 74.6909 151.04C74.4029 150.88 74.0269 150.752 73.5629 150.656C73.1149 150.544 72.6269 150.432 72.0989 150.32C71.5869 150.192 71.0989 150.008 70.6349 149.768C70.1869 149.528 69.8109 149.192 69.5069 148.76C69.2189 148.312 69.0749 147.72 69.0749 146.984C69.0749 146.296 69.2109 145.704 69.4829 145.208C69.7709 144.712 70.1389 144.304 70.5869 143.984C71.0509 143.664 71.5789 143.432 72.1709 143.288C72.7629 143.128 73.3629 143.048 73.9709 143.048C74.7389 143.048 75.5149 143.16 76.2989 143.384C77.0829 143.608 77.7469 144.008 78.2909 144.584L76.0829 146.768ZM88.5363 146.216H85.3683V150.104C85.3683 150.424 85.3843 150.72 85.4163 150.992C85.4483 151.248 85.5203 151.472 85.6323 151.664C85.7443 151.856 85.9123 152.008 86.1363 152.12C86.3763 152.216 86.6883 152.264 87.0723 152.264C87.2643 152.264 87.5123 152.248 87.8163 152.216C88.1363 152.168 88.3763 152.072 88.5363 151.928V154.928C88.1363 155.072 87.7203 155.168 87.2883 155.216C86.8563 155.264 86.4323 155.288 86.0163 155.288C85.4083 155.288 84.8483 155.224 84.3363 155.096C83.8243 154.968 83.3763 154.768 82.9923 154.496C82.6083 154.208 82.3043 153.84 82.0803 153.392C81.8723 152.944 81.7683 152.4 81.7683 151.76V146.216H79.4643V143.336H81.7683V139.88H85.3683V143.336H88.5363V146.216ZM89.9338 149.168C89.9338 148.24 90.1018 147.4 90.4378 146.648C90.7738 145.896 91.2298 145.256 91.8058 144.728C92.3978 144.184 93.0858 143.768 93.8698 143.48C94.6698 143.192 95.5178 143.048 96.4138 143.048C97.3098 143.048 98.1498 143.192 98.9338 143.48C99.7338 143.768 100.422 144.184 100.998 144.728C101.59 145.256 102.054 145.896 102.39 146.648C102.726 147.4 102.894 148.24 102.894 149.168C102.894 150.096 102.726 150.936 102.39 151.688C102.054 152.44 101.59 153.088 100.998 153.632C100.422 154.16 99.7338 154.568 98.9338 154.856C98.1498 155.144 97.3098 155.288 96.4138 155.288C95.5178 155.288 94.6698 155.144 93.8698 154.856C93.0858 154.568 92.3978 154.16 91.8058 153.632C91.2298 153.088 90.7738 152.44 90.4378 151.688C90.1018 150.936 89.9338 150.096 89.9338 149.168ZM93.5338 149.168C93.5338 150.048 93.7818 150.76 94.2778 151.304C94.7898 151.848 95.5018 152.12 96.4138 152.12C97.3258 152.12 98.0298 151.848 98.5258 151.304C99.0378 150.76 99.2938 150.048 99.2938 149.168C99.2938 148.288 99.0378 147.576 98.5258 147.032C98.0298 146.488 97.3258 146.216 96.4138 146.216C95.5018 146.216 94.7898 146.488 94.2778 147.032C93.7818 147.576 93.5338 148.288 93.5338 149.168ZM105.014 143.336H108.47V144.92H108.518C108.63 144.696 108.79 144.472 108.998 144.248C109.206 144.024 109.454 143.824 109.742 143.648C110.03 143.472 110.358 143.328 110.726 143.216C111.094 143.104 111.494 143.048 111.926 143.048C112.742 143.048 113.462 143.216 114.086 143.552C114.726 143.888 115.206 144.416 115.526 145.136C115.942 144.384 116.446 143.848 117.038 143.528C117.63 143.208 118.358 143.048 119.222 143.048C120.006 143.048 120.662 143.184 121.19 143.456C121.734 143.712 122.158 144.072 122.462 144.536C122.782 144.984 123.006 145.52 123.134 146.144C123.278 146.752 123.35 147.408 123.35 148.112V155H119.75V148.208C119.75 147.664 119.63 147.2 119.39 146.816C119.166 146.416 118.758 146.216 118.166 146.216C117.75 146.216 117.398 146.288 117.11 146.432C116.838 146.56 116.614 146.744 116.438 146.984C116.278 147.224 116.158 147.504 116.078 147.824C116.014 148.144 115.982 148.48 115.982 148.832V155H112.382V148.832C112.382 148.624 112.374 148.368 112.358 148.064C112.342 147.76 112.286 147.472 112.19 147.2C112.094 146.928 111.934 146.696 111.71 146.504C111.502 146.312 111.19 146.216 110.774 146.216C110.31 146.216 109.934 146.304 109.646 146.48C109.358 146.64 109.134 146.864 108.974 147.152C108.83 147.424 108.734 147.736 108.686 148.088C108.638 148.44 108.614 148.808 108.614 149.192V155H105.014V143.336ZM136.937 152.984C136.361 153.72 135.633 154.288 134.753 154.688C133.873 155.088 132.961 155.288 132.017 155.288C131.121 155.288 130.273 155.144 129.473 154.856C128.689 154.568 128.001 154.16 127.409 153.632C126.833 153.088 126.377 152.44 126.041 151.688C125.705 150.936 125.537 150.096 125.537 149.168C125.537 148.24 125.705 147.4 126.041 146.648C126.377 145.896 126.833 145.256 127.409 144.728C128.001 144.184 128.689 143.768 129.473 143.48C130.273 143.192 131.121 143.048 132.017 143.048C132.849 143.048 133.601 143.192 134.273 143.48C134.961 143.768 135.537 144.184 136.001 144.728C136.481 145.256 136.849 145.896 137.105 146.648C137.361 147.4 137.489 148.24 137.489 149.168V150.296H129.137C129.281 150.984 129.593 151.536 130.073 151.952C130.553 152.352 131.145 152.552 131.849 152.552C132.441 152.552 132.937 152.424 133.337 152.168C133.753 151.896 134.113 151.552 134.417 151.136L136.937 152.984ZM133.889 147.848C133.905 147.24 133.705 146.72 133.289 146.288C132.873 145.856 132.337 145.64 131.681 145.64C131.281 145.64 130.929 145.704 130.625 145.832C130.321 145.96 130.057 146.128 129.833 146.336C129.625 146.528 129.457 146.76 129.329 147.032C129.217 147.288 129.153 147.56 129.137 147.848H133.889ZM139.678 143.336H143.278V145.208H143.326C143.71 144.488 144.166 143.952 144.694 143.6C145.222 143.232 145.886 143.048 146.686 143.048C146.894 143.048 147.102 143.056 147.31 143.072C147.518 143.088 147.71 143.12 147.886 143.168V146.456C147.63 146.376 147.374 146.32 147.118 146.288C146.878 146.24 146.622 146.216 146.35 146.216C145.662 146.216 145.118 146.312 144.718 146.504C144.318 146.696 144.006 146.968 143.782 147.32C143.574 147.656 143.438 148.064 143.374 148.544C143.31 149.024 143.278 149.552 143.278 150.128V155H139.678V143.336ZM39.68 171.008H43.424V188H39.68V171.008ZM46.3736 176.336H49.8296V177.92H49.8776C49.9896 177.696 50.1496 177.472 50.3576 177.248C50.5656 177.024 50.8136 176.824 51.1016 176.648C51.3896 176.472 51.7176 176.328 52.0856 176.216C52.4536 176.104 52.8536 176.048 53.2856 176.048C54.1976 176.048 54.9336 176.192 55.4936 176.48C56.0536 176.752 56.4856 177.136 56.7896 177.632C57.1096 178.128 57.3256 178.712 57.4376 179.384C57.5496 180.056 57.6056 180.784 57.6056 181.568V188H54.0056V182.288C54.0056 181.952 53.9896 181.608 53.9576 181.256C53.9416 180.888 53.8696 180.552 53.7416 180.248C53.6296 179.944 53.4456 179.696 53.1896 179.504C52.9496 179.312 52.5976 179.216 52.1336 179.216C51.6696 179.216 51.2936 179.304 51.0056 179.48C50.7176 179.64 50.4936 179.864 50.3336 180.152C50.1896 180.424 50.0936 180.736 50.0456 181.088C49.9976 181.44 49.9736 181.808 49.9736 182.192V188H46.3736V176.336ZM68.0988 179.216H64.9308V183.104C64.9308 183.424 64.9468 183.72 64.9788 183.992C65.0108 184.248 65.0828 184.472 65.1948 184.664C65.3068 184.856 65.4748 185.008 65.6988 185.12C65.9388 185.216 66.2508 185.264 66.6348 185.264C66.8268 185.264 67.0748 185.248 67.3788 185.216C67.6988 185.168 67.9388 185.072 68.0988 184.928V187.928C67.6988 188.072 67.2828 188.168 66.8508 188.216C66.4188 188.264 65.9948 188.288 65.5788 188.288C64.9708 188.288 64.4108 188.224 63.8988 188.096C63.3868 187.968 62.9388 187.768 62.5548 187.496C62.1708 187.208 61.8668 186.84 61.6428 186.392C61.4348 185.944 61.3308 185.4 61.3308 184.76V179.216H59.0268V176.336H61.3308V172.88H64.9308V176.336H68.0988V179.216ZM80.9683 185.984C80.3923 186.72 79.6643 187.288 78.7843 187.688C77.9043 188.088 76.9923 188.288 76.0483 188.288C75.1523 188.288 74.3043 188.144 73.5043 187.856C72.7203 187.568 72.0323 187.16 71.4403 186.632C70.8643 186.088 70.4083 185.44 70.0723 184.688C69.7363 183.936 69.5683 183.096 69.5683 182.168C69.5683 181.24 69.7363 180.4 70.0723 179.648C70.4083 178.896 70.8643 178.256 71.4403 177.728C72.0323 177.184 72.7203 176.768 73.5043 176.48C74.3043 176.192 75.1523 176.048 76.0483 176.048C76.8803 176.048 77.6323 176.192 78.3043 176.48C78.9923 176.768 79.5683 177.184 80.0323 177.728C80.5123 178.256 80.8803 178.896 81.1363 179.648C81.3923 180.4 81.5203 181.24 81.5203 182.168V183.296H73.1683C73.3123 183.984 73.6243 184.536 74.1043 184.952C74.5843 185.352 75.1763 185.552 75.8803 185.552C76.4723 185.552 76.9683 185.424 77.3683 185.168C77.7843 184.896 78.1443 184.552 78.4483 184.136L80.9683 185.984ZM77.9203 180.848C77.9363 180.24 77.7363 179.72 77.3203 179.288C76.9043 178.856 76.3683 178.64 75.7122 178.64C75.3123 178.64 74.9603 178.704 74.6562 178.832C74.3523 178.96 74.0883 179.128 73.8643 179.336C73.6563 179.528 73.4883 179.76 73.3603 180.032C73.2483 180.288 73.1843 180.56 73.1683 180.848H77.9203ZM83.7095 176.336H87.3095V178.208H87.3575C87.7415 177.488 88.1975 176.952 88.7255 176.6C89.2535 176.232 89.9175 176.048 90.7175 176.048C90.9255 176.048 91.1335 176.056 91.3415 176.072C91.5495 176.088 91.7415 176.12 91.9175 176.168V179.456C91.6615 179.376 91.4055 179.32 91.1495 179.288C90.9095 179.24 90.6535 179.216 90.3815 179.216C89.6935 179.216 89.1495 179.312 88.7495 179.504C88.3495 179.696 88.0375 179.968 87.8135 180.32C87.6055 180.656 87.4695 181.064 87.4055 181.544C87.3415 182.024 87.3095 182.552 87.3095 183.128V188H83.7095V176.336ZM92.2589 176.336H96.1469L99.0989 184.256H99.1469L101.883 176.336H105.507L100.899 188H97.0829L92.2589 176.336ZM106.867 176.336H110.467V188H106.867V176.336ZM106.579 172.664C106.579 172.088 106.779 171.6 107.179 171.2C107.595 170.784 108.091 170.576 108.667 170.576C109.243 170.576 109.731 170.784 110.131 171.2C110.547 171.6 110.755 172.088 110.755 172.664C110.755 173.24 110.547 173.736 110.131 174.152C109.731 174.552 109.243 174.752 108.667 174.752C108.091 174.752 107.595 174.552 107.179 174.152C106.779 173.736 106.579 173.24 106.579 172.664ZM124.093 185.984C123.517 186.72 122.789 187.288 121.909 187.688C121.029 188.088 120.117 188.288 119.173 188.288C118.277 188.288 117.429 188.144 116.629 187.856C115.845 187.568 115.157 187.16 114.565 186.632C113.989 186.088 113.533 185.44 113.197 184.688C112.861 183.936 112.693 183.096 112.693 182.168C112.693 181.24 112.861 180.4 113.197 179.648C113.533 178.896 113.989 178.256 114.565 177.728C115.157 177.184 115.845 176.768 116.629 176.48C117.429 176.192 118.277 176.048 119.173 176.048C120.005 176.048 120.757 176.192 121.429 176.48C122.117 176.768 122.693 177.184 123.157 177.728C123.637 178.256 124.005 178.896 124.261 179.648C124.517 180.4 124.645 181.24 124.645 182.168V183.296H116.293C116.437 183.984 116.749 184.536 117.229 184.952C117.709 185.352 118.301 185.552 119.005 185.552C119.597 185.552 120.093 185.424 120.493 185.168C120.909 184.896 121.269 184.552 121.573 184.136L124.093 185.984ZM121.045 180.848C121.061 180.24 120.861 179.72 120.445 179.288C120.029 178.856 119.493 178.64 118.837 178.64C118.437 178.64 118.085 178.704 117.781 178.832C117.477 178.96 117.213 179.128 116.989 179.336C116.781 179.528 116.613 179.76 116.485 180.032C116.373 180.288 116.309 180.56 116.293 180.848H121.045ZM125.442 176.336H129.283L131.659 183.656H131.707L133.699 176.336H137.635L139.795 183.656H139.843L142.027 176.336H145.675L141.523 188H137.971L135.547 180.248H135.499L133.339 188H129.715L125.442 176.336ZM153.427 179.768C152.899 179.112 152.203 178.784 151.339 178.784C151.035 178.784 150.739 178.856 150.451 179C150.163 179.144 150.019 179.392 150.019 179.744C150.019 180.032 150.163 180.248 150.451 180.392C150.755 180.52 151.131 180.64 151.579 180.752C152.043 180.848 152.531 180.96 153.043 181.088C153.571 181.2 154.059 181.384 154.507 181.64C154.971 181.896 155.347 182.248 155.635 182.696C155.939 183.128 156.091 183.712 156.091 184.448C156.091 185.2 155.923 185.824 155.587 186.32C155.267 186.8 154.851 187.192 154.339 187.496C153.827 187.784 153.251 187.984 152.611 188.096C151.971 188.224 151.339 188.288 150.715 188.288C149.899 188.288 149.075 188.176 148.243 187.952C147.411 187.712 146.707 187.296 146.131 186.704L148.315 184.28C148.651 184.696 149.019 185.016 149.419 185.24C149.835 185.448 150.315 185.552 150.859 185.552C151.275 185.552 151.651 185.496 151.987 185.384C152.323 185.256 152.491 185.032 152.491 184.712C152.491 184.408 152.339 184.184 152.035 184.04C151.747 183.88 151.371 183.752 150.907 183.656C150.459 183.544 149.971 183.432 149.443 183.32C148.931 183.192 148.443 183.008 147.979 182.768C147.531 182.528 147.155 182.192 146.851 181.76C146.563 181.312 146.419 180.72 146.419 179.984C146.419 179.296 146.555 178.704 146.827 178.208C147.115 177.712 147.483 177.304 147.931 176.984C148.395 176.664 148.923 176.432 149.515 176.288C150.107 176.128 150.707 176.048 151.315 176.048C152.083 176.048 152.859 176.16 153.643 176.384C154.427 176.608 155.091 177.008 155.635 177.584L153.427 179.768Z" fill="black"/>
<rect x="271" y="65" width="197" height="197" fill="white"/>
<path d="M325.056 148.448C325.056 149.456 324.904 150.384 324.6 151.232C324.296 152.08 323.84 152.816 323.232 153.44C322.64 154.064 321.896 154.552 321 154.904C320.104 155.256 319.072 155.432 317.904 155.432C316.72 155.432 315.68 155.256 314.784 154.904C313.888 154.552 313.136 154.064 312.528 153.44C311.936 152.816 311.488 152.08 311.184 151.232C310.88 150.384 310.728 149.456 310.728 148.448V138.008H314.472V148.304C314.472 148.832 314.552 149.32 314.712 149.768C314.888 150.216 315.128 150.608 315.432 150.944C315.736 151.264 316.096 151.52 316.512 151.712C316.944 151.888 317.408 151.976 317.904 151.976C318.4 151.976 318.856 151.888 319.272 151.712C319.688 151.52 320.048 151.264 320.352 150.944C320.656 150.608 320.888 150.216 321.048 149.768C321.224 149.32 321.312 148.832 321.312 148.304V138.008H325.056V148.448ZM334.661 146.768C334.133 146.112 333.437 145.784 332.573 145.784C332.269 145.784 331.973 145.856 331.685 146C331.397 146.144 331.253 146.392 331.253 146.744C331.253 147.032 331.397 147.248 331.685 147.392C331.989 147.52 332.365 147.64 332.813 147.752C333.277 147.848 333.765 147.96 334.277 148.088C334.805 148.2 335.293 148.384 335.741 148.64C336.205 148.896 336.581 149.248 336.869 149.696C337.173 150.128 337.325 150.712 337.325 151.448C337.325 152.2 337.157 152.824 336.821 153.32C336.501 153.8 336.085 154.192 335.573 154.496C335.061 154.784 334.485 154.984 333.845 155.096C333.205 155.224 332.573 155.288 331.949 155.288C331.133 155.288 330.309 155.176 329.477 154.952C328.645 154.712 327.941 154.296 327.365 153.704L329.549 151.28C329.885 151.696 330.253 152.016 330.653 152.24C331.069 152.448 331.549 152.552 332.093 152.552C332.509 152.552 332.885 152.496 333.221 152.384C333.557 152.256 333.725 152.032 333.725 151.712C333.725 151.408 333.573 151.184 333.269 151.04C332.981 150.88 332.605 150.752 332.141 150.656C331.693 150.544 331.205 150.432 330.677 150.32C330.165 150.192 329.677 150.008 329.213 149.768C328.765 149.528 328.389 149.192 328.085 148.76C327.797 148.312 327.653 147.72 327.653 146.984C327.653 146.296 327.789 145.704 328.061 145.208C328.349 144.712 328.717 144.304 329.165 143.984C329.629 143.664 330.157 143.432 330.749 143.288C331.341 143.128 331.941 143.048 332.549 143.048C333.317 143.048 334.093 143.16 334.877 143.384C335.661 143.608 336.325 144.008 336.869 144.584L334.661 146.768ZM346.49 153.536H346.442C346.042 154.16 345.506 154.608 344.834 154.88C344.178 155.152 343.482 155.288 342.746 155.288C342.202 155.288 341.674 155.208 341.162 155.048C340.666 154.904 340.226 154.68 339.842 154.376C339.458 154.072 339.154 153.696 338.93 153.248C338.706 152.8 338.594 152.28 338.594 151.688C338.594 151.016 338.714 150.448 338.954 149.984C339.21 149.52 339.546 149.136 339.962 148.832C340.394 148.528 340.882 148.296 341.426 148.136C341.97 147.96 342.53 147.832 343.106 147.752C343.698 147.672 344.282 147.624 344.858 147.608C345.45 147.592 345.994 147.584 346.49 147.584C346.49 146.944 346.258 146.44 345.794 146.072C345.346 145.688 344.81 145.496 344.186 145.496C343.594 145.496 343.05 145.624 342.554 145.88C342.074 146.12 341.642 146.456 341.258 146.888L339.338 144.92C340.01 144.296 340.794 143.832 341.69 143.528C342.586 143.208 343.514 143.048 344.474 143.048C345.53 143.048 346.394 143.184 347.066 143.456C347.754 143.712 348.298 144.096 348.698 144.608C349.114 145.12 349.402 145.752 349.562 146.504C349.722 147.24 349.802 148.096 349.802 149.072V155H346.49V153.536ZM345.602 149.888C345.33 149.888 344.986 149.904 344.57 149.936C344.17 149.952 343.778 150.016 343.394 150.128C343.026 150.24 342.706 150.408 342.434 150.632C342.178 150.856 342.05 151.168 342.05 151.568C342.05 152 342.234 152.32 342.602 152.528C342.97 152.736 343.354 152.84 343.754 152.84C344.106 152.84 344.442 152.792 344.762 152.696C345.098 152.6 345.394 152.464 345.65 152.288C345.906 152.112 346.106 151.888 346.25 151.616C346.41 151.344 346.49 151.024 346.49 150.656V149.888H345.602ZM352.397 136.856H355.997V144.584H356.045C356.461 144.024 356.989 143.632 357.629 143.408C358.285 143.168 358.989 143.048 359.741 143.048C360.573 143.048 361.317 143.224 361.973 143.576C362.629 143.912 363.181 144.368 363.629 144.944C364.093 145.52 364.445 146.184 364.685 146.936C364.941 147.672 365.069 148.448 365.069 149.264C365.069 150.144 364.933 150.952 364.661 151.688C364.389 152.424 363.997 153.064 363.485 153.608C362.989 154.136 362.389 154.552 361.685 154.856C360.981 155.144 360.197 155.288 359.333 155.288C358.917 155.288 358.525 155.232 358.157 155.12C357.789 155.008 357.445 154.864 357.125 154.688C356.821 154.512 356.549 154.32 356.309 154.112C356.085 153.888 355.901 153.672 355.757 153.464H355.709V155H352.397V136.856ZM355.709 149.168C355.709 150.048 355.957 150.76 356.453 151.304C356.965 151.848 357.677 152.12 358.589 152.12C359.501 152.12 360.205 151.848 360.701 151.304C361.213 150.76 361.469 150.048 361.469 149.168C361.469 148.288 361.213 147.576 360.701 147.032C360.205 146.488 359.501 146.216 358.589 146.216C357.677 146.216 356.965 146.488 356.453 147.032C355.957 147.576 355.709 148.288 355.709 149.168ZM367.226 143.336H370.826V155H367.226V143.336ZM366.938 139.664C366.938 139.088 367.138 138.6 367.538 138.2C367.954 137.784 368.45 137.576 369.026 137.576C369.602 137.576 370.09 137.784 370.49 138.2C370.906 138.6 371.114 139.088 371.114 139.664C371.114 140.24 370.906 140.736 370.49 141.152C370.09 141.552 369.602 141.752 369.026 141.752C368.45 141.752 367.954 141.552 367.538 141.152C367.138 140.736 366.938 140.24 366.938 139.664ZM373.461 136.856H377.061V155H373.461V136.856ZM379.695 143.336H383.295V155H379.695V143.336ZM379.407 139.664C379.407 139.088 379.607 138.6 380.007 138.2C380.423 137.784 380.919 137.576 381.495 137.576C382.071 137.576 382.559 137.784 382.959 138.2C383.375 138.6 383.583 139.088 383.583 139.664C383.583 140.24 383.375 140.736 382.959 141.152C382.559 141.552 382.071 141.752 381.495 141.752C380.919 141.752 380.423 141.552 380.007 141.152C379.607 140.736 379.407 140.24 379.407 139.664ZM393.825 146.216H390.657V150.104C390.657 150.424 390.673 150.72 390.705 150.992C390.737 151.248 390.809 151.472 390.921 151.664C391.033 151.856 391.201 152.008 391.425 152.12C391.665 152.216 391.977 152.264 392.361 152.264C392.553 152.264 392.801 152.248 393.105 152.216C393.425 152.168 393.665 152.072 393.825 151.928V154.928C393.425 155.072 393.009 155.168 392.577 155.216C392.145 155.264 391.721 155.288 391.305 155.288C390.697 155.288 390.137 155.224 389.625 155.096C389.113 154.968 388.665 154.768 388.281 154.496C387.897 154.208 387.593 153.84 387.369 153.392C387.161 152.944 387.057 152.4 387.057 151.76V146.216H384.753V143.336H387.057V139.88H390.657V143.336H393.825V146.216ZM402.375 156.896C402.135 157.52 401.903 158.072 401.679 158.552C401.455 159.032 401.167 159.432 400.815 159.752C400.479 160.088 400.047 160.336 399.519 160.496C398.991 160.672 398.295 160.76 397.431 160.76C396.503 160.76 395.607 160.616 394.743 160.328L395.223 157.376C395.767 157.616 396.327 157.736 396.903 157.736C397.303 157.736 397.631 157.688 397.887 157.592C398.143 157.512 398.351 157.384 398.511 157.208C398.687 157.048 398.831 156.848 398.943 156.608C399.055 156.368 399.175 156.088 399.303 155.768L399.567 155.096L394.455 143.336H398.343L401.343 151.04H401.391L403.959 143.336H407.655L402.375 156.896ZM314.016 174.32H309.168V171.008H322.608V174.32H317.76V188H314.016V174.32ZM332.421 185.984C331.845 186.72 331.117 187.288 330.237 187.688C329.357 188.088 328.445 188.288 327.501 188.288C326.605 188.288 325.757 188.144 324.957 187.856C324.173 187.568 323.485 187.16 322.893 186.632C322.317 186.088 321.861 185.44 321.525 184.688C321.189 183.936 321.021 183.096 321.021 182.168C321.021 181.24 321.189 180.4 321.525 179.648C321.861 178.896 322.317 178.256 322.893 177.728C323.485 177.184 324.173 176.768 324.957 176.48C325.757 176.192 326.605 176.048 327.501 176.048C328.333 176.048 329.085 176.192 329.757 176.48C330.445 176.768 331.021 177.184 331.485 177.728C331.965 178.256 332.333 178.896 332.589 179.648C332.845 180.4 332.973 181.24 332.973 182.168V183.296H324.621C324.765 183.984 325.077 184.536 325.557 184.952C326.037 185.352 326.629 185.552 327.333 185.552C327.925 185.552 328.421 185.424 328.821 185.168C329.237 184.896 329.597 184.552 329.901 184.136L332.421 185.984ZM329.373 180.848C329.389 180.24 329.189 179.72 328.773 179.288C328.357 178.856 327.821 178.64 327.165 178.64C326.765 178.64 326.413 178.704 326.109 178.832C325.805 178.96 325.541 179.128 325.317 179.336C325.109 179.528 324.941 179.76 324.813 180.032C324.701 180.288 324.637 180.56 324.621 180.848H329.373ZM341.763 179.768C341.235 179.112 340.539 178.784 339.675 178.784C339.371 178.784 339.075 178.856 338.787 179C338.499 179.144 338.355 179.392 338.355 179.744C338.355 180.032 338.499 180.248 338.787 180.392C339.091 180.52 339.467 180.64 339.915 180.752C340.379 180.848 340.867 180.96 341.379 181.088C341.907 181.2 342.395 181.384 342.843 181.64C343.307 181.896 343.683 182.248 343.971 182.696C344.275 183.128 344.427 183.712 344.427 184.448C344.427 185.2 344.259 185.824 343.923 186.32C343.603 186.8 343.187 187.192 342.675 187.496C342.163 187.784 341.587 187.984 340.947 188.096C340.307 188.224 339.675 188.288 339.051 188.288C338.235 188.288 337.411 188.176 336.579 187.952C335.747 187.712 335.043 187.296 334.467 186.704L336.651 184.28C336.987 184.696 337.355 185.016 337.755 185.24C338.171 185.448 338.651 185.552 339.195 185.552C339.611 185.552 339.987 185.496 340.323 185.384C340.659 185.256 340.827 185.032 340.827 184.712C340.827 184.408 340.675 184.184 340.371 184.04C340.083 183.88 339.707 183.752 339.243 183.656C338.795 183.544 338.307 183.432 337.779 183.32C337.267 183.192 336.779 183.008 336.315 182.768C335.867 182.528 335.491 182.192 335.187 181.76C334.899 181.312 334.755 180.72 334.755 179.984C334.755 179.296 334.891 178.704 335.163 178.208C335.451 177.712 335.819 177.304 336.267 176.984C336.731 176.664 337.259 176.432 337.851 176.288C338.443 176.128 339.043 176.048 339.651 176.048C340.419 176.048 341.195 176.16 341.979 176.384C342.763 176.608 343.427 177.008 343.971 177.584L341.763 179.768ZM354.216 179.216H351.048V183.104C351.048 183.424 351.064 183.72 351.096 183.992C351.128 184.248 351.2 184.472 351.312 184.664C351.424 184.856 351.592 185.008 351.816 185.12C352.056 185.216 352.368 185.264 352.752 185.264C352.944 185.264 353.192 185.248 353.496 185.216C353.816 185.168 354.056 185.072 354.216 184.928V187.928C353.816 188.072 353.4 188.168 352.968 188.216C352.536 188.264 352.112 188.288 351.696 188.288C351.088 188.288 350.528 188.224 350.016 188.096C349.504 187.968 349.056 187.768 348.672 187.496C348.288 187.208 347.984 186.84 347.76 186.392C347.552 185.944 347.448 185.4 347.448 184.76V179.216H345.144V176.336H347.448V172.88H351.048V176.336H354.216V179.216ZM356.093 176.336H359.693V188H356.093V176.336ZM355.805 172.664C355.805 172.088 356.005 171.6 356.405 171.2C356.821 170.784 357.317 170.576 357.893 170.576C358.469 170.576 358.957 170.784 359.357 171.2C359.773 171.6 359.981 172.088 359.981 172.664C359.981 173.24 359.773 173.736 359.357 174.152C358.957 174.552 358.469 174.752 357.893 174.752C357.317 174.752 356.821 174.552 356.405 174.152C356.005 173.736 355.805 173.24 355.805 172.664ZM362.28 176.336H365.736V177.92H365.784C365.896 177.696 366.056 177.472 366.264 177.248C366.472 177.024 366.72 176.824 367.008 176.648C367.296 176.472 367.624 176.328 367.992 176.216C368.36 176.104 368.76 176.048 369.192 176.048C370.104 176.048 370.84 176.192 371.4 176.48C371.96 176.752 372.392 177.136 372.696 177.632C373.016 178.128 373.232 178.712 373.344 179.384C373.456 180.056 373.512 180.784 373.512 181.568V188H369.912V182.288C369.912 181.952 369.896 181.608 369.864 181.256C369.848 180.888 369.776 180.552 369.648 180.248C369.536 179.944 369.352 179.696 369.096 179.504C368.856 179.312 368.504 179.216 368.04 179.216C367.576 179.216 367.2 179.304 366.912 179.48C366.624 179.64 366.4 179.864 366.24 180.152C366.096 180.424 366 180.736 365.952 181.088C365.904 181.44 365.88 181.808 365.88 182.192V188H362.28V176.336ZM388.301 187.016C388.301 189.224 387.741 190.896 386.621 192.032C385.517 193.184 383.829 193.76 381.557 193.76C380.517 193.76 379.493 193.64 378.485 193.4C377.477 193.176 376.549 192.728 375.701 192.056L377.693 189.08C378.253 189.544 378.837 189.912 379.445 190.184C380.069 190.456 380.749 190.592 381.485 190.592C382.589 190.592 383.397 190.32 383.909 189.776C384.437 189.248 384.701 188.568 384.701 187.736V186.608H384.653C384.237 187.168 383.717 187.568 383.093 187.808C382.485 188.032 381.909 188.144 381.365 188.144C380.501 188.144 379.717 188 379.013 187.712C378.309 187.408 377.701 186.992 377.189 186.464C376.693 185.92 376.309 185.28 376.037 184.544C375.765 183.808 375.629 183 375.629 182.12C375.629 181.352 375.749 180.6 375.989 179.864C376.245 179.128 376.597 178.48 377.045 177.92C377.509 177.36 378.069 176.912 378.725 176.576C379.381 176.224 380.125 176.048 380.957 176.048C381.469 176.048 381.933 176.104 382.349 176.216C382.781 176.328 383.165 176.472 383.501 176.648C383.837 176.824 384.125 177.024 384.365 177.248C384.605 177.456 384.797 177.664 384.941 177.872H384.989V176.336H388.301V187.016ZM379.229 182.096C379.229 182.48 379.301 182.848 379.445 183.2C379.589 183.536 379.789 183.84 380.045 184.112C380.317 184.368 380.621 184.576 380.957 184.736C381.309 184.896 381.693 184.976 382.109 184.976C382.509 184.976 382.885 184.896 383.237 184.736C383.589 184.576 383.893 184.368 384.149 184.112C384.421 183.84 384.629 183.536 384.773 183.2C384.917 182.848 384.989 182.48 384.989 182.096C384.989 181.712 384.917 181.352 384.773 181.016C384.629 180.664 384.421 180.36 384.149 180.104C383.893 179.832 383.589 179.616 383.237 179.456C382.885 179.296 382.509 179.216 382.109 179.216C381.693 179.216 381.309 179.296 380.957 179.456C380.621 179.616 380.317 179.832 380.045 180.104C379.789 180.36 379.589 180.664 379.445 181.016C379.301 181.352 379.229 181.712 379.229 182.096Z" fill="black"/>
<path d="M178.569 43.3073C178.187 45.2021 179.413 47.0482 181.307 47.4308C183.202 47.8133 185.048 46.5874 185.431 44.6927L178.569 43.3073ZM286.9 46.8003C288.447 47.9599 290.641 47.6462 291.8 46.0996L310.697 20.8969C311.856 19.3503 311.543 17.1566 309.996 15.997C308.449 14.8374 306.256 15.1511 305.096 16.6977L288.299 39.1001L265.897 22.3033C264.35 21.1437 262.157 21.4574 260.997 23.004C259.837 24.5506 260.151 26.7443 261.698 27.9039L286.9 46.8003ZM182 44C185.431 44.6927 185.43 44.6944 185.43 44.696C185.43 44.6963 185.43 44.6977 185.43 44.6984C185.429 44.6997 185.429 44.7004 185.429 44.7005C185.429 44.7007 185.43 44.6986 185.431 44.6941C185.432 44.6851 185.436 44.6668 185.442 44.6395C185.454 44.5849 185.475 44.4942 185.505 44.3699C185.565 44.1213 185.662 43.7386 185.804 43.2409C186.088 42.2448 186.549 40.7934 187.244 39.0388C188.637 35.5219 190.95 30.8352 194.617 26.1602C201.867 16.9178 214.559 7.5 236.678 7.5V0.5C212.195 0.5 197.548 11.0822 189.109 21.8398C184.932 27.1648 182.314 32.4781 180.736 36.4612C179.946 38.4566 179.412 40.1302 179.072 41.3216C178.902 41.9177 178.78 42.3943 178.699 42.7316C178.659 42.9003 178.628 43.0342 178.607 43.131C178.596 43.1794 178.588 43.2185 178.582 43.2479C178.578 43.2627 178.576 43.275 178.574 43.2849C178.573 43.2899 178.572 43.2942 178.571 43.298C178.571 43.2998 178.57 43.3022 178.57 43.3031C178.57 43.3053 178.569 43.3073 182 44ZM236.678 7.5C258.781 7.5 270.838 16.8985 277.482 26.0554C280.853 30.7019 282.88 35.3641 284.062 38.8683C284.651 40.6159 285.025 42.0616 285.249 43.0535C285.362 43.549 285.436 43.9299 285.481 44.1769C285.503 44.3004 285.518 44.3903 285.527 44.4443C285.531 44.4712 285.534 44.4892 285.536 44.4978C285.536 44.5021 285.536 44.5041 285.536 44.5037C285.536 44.5036 285.536 44.5028 285.536 44.5014C285.536 44.5007 285.536 44.4992 285.536 44.4989C285.535 44.4973 285.535 44.4955 289 44C292.465 43.5045 292.464 43.5024 292.464 43.5002C292.464 43.4993 292.464 43.4969 292.463 43.4949C292.463 43.4911 292.462 43.4867 292.461 43.4817C292.46 43.4716 292.458 43.4591 292.456 43.4442C292.451 43.4144 292.445 43.375 292.437 43.3262C292.421 43.2288 292.399 43.0941 292.368 42.9246C292.306 42.5857 292.212 42.1072 292.077 41.509C291.806 40.3134 291.37 38.6341 290.695 36.6317C289.347 32.6359 287.032 27.2981 283.148 21.9446C275.281 11.1015 261.177 0.5 236.678 0.5V7.5Z" fill="white"/>
<path d="M178.547 283.569C178.232 281.662 179.524 279.861 181.431 279.547C183.338 279.232 185.139 280.524 185.453 282.431L178.547 283.569ZM286.829 280.255C288.345 279.056 290.546 279.313 291.745 280.829L311.286 305.535C312.485 307.051 312.228 309.252 310.712 310.451C309.196 311.651 306.995 311.394 305.796 309.877L288.426 287.916L266.465 305.286C264.949 306.485 262.748 306.228 261.549 304.712C260.349 303.196 260.606 300.995 262.123 299.796L286.829 280.255ZM182 283C185.453 282.431 185.453 282.429 185.453 282.428C185.453 282.428 185.453 282.427 185.453 282.427C185.453 282.426 185.453 282.426 185.453 282.427C185.453 282.429 185.454 282.434 185.455 282.441C185.458 282.456 185.462 282.482 185.469 282.52C185.483 282.595 185.505 282.715 185.536 282.875C185.6 283.197 185.701 283.684 185.847 284.312C186.14 285.569 186.612 287.388 187.32 289.579C188.741 293.975 191.093 299.807 194.811 305.613C202.194 317.143 214.873 328.5 236.678 328.5V335.5C211.88 335.5 197.221 322.357 188.916 309.387C184.789 302.943 182.209 296.525 180.66 291.733C179.883 289.331 179.36 287.321 179.029 285.899C178.864 285.187 178.746 284.621 178.668 284.225C178.629 284.027 178.6 283.871 178.58 283.761C178.57 283.706 178.562 283.662 178.557 283.63C178.554 283.614 178.552 283.601 178.55 283.591C178.549 283.586 178.549 283.581 178.548 283.578C178.548 283.576 178.547 283.574 178.547 283.573C178.547 283.571 178.547 283.569 182 283ZM236.678 328.5C258.452 328.5 270.515 317.178 277.303 305.716C280.729 299.932 282.796 294.116 284.004 289.727C284.606 287.54 284.99 285.725 285.221 284.47C285.337 283.843 285.415 283.357 285.462 283.036C285.486 282.876 285.502 282.757 285.512 282.682C285.517 282.645 285.521 282.619 285.522 282.604C285.523 282.596 285.524 282.592 285.524 282.59C285.524 282.589 285.524 282.589 285.524 282.59C285.524 282.59 285.524 282.591 285.524 282.592C285.524 282.593 285.524 282.594 289 283C292.476 283.406 292.476 283.408 292.476 283.41C292.476 283.41 292.476 283.413 292.475 283.414C292.475 283.418 292.474 283.422 292.474 283.428C292.473 283.438 292.471 283.451 292.469 283.467C292.465 283.499 292.459 283.543 292.452 283.599C292.437 283.71 292.416 283.866 292.386 284.064C292.328 284.461 292.237 285.028 292.105 285.741C291.842 287.166 291.415 289.179 290.753 291.585C289.432 296.384 287.155 302.818 283.326 309.284C275.604 322.322 261.506 335.5 236.678 335.5V328.5Z" fill="white"/>
</svg>
