<svg width="468" height="336" viewBox="0 0 468 336" fill="none" xmlns="http://www.w3.org/2000/svg">
<rect y="65" width="197" height="197" fill="white"/>
<path d="M50.84 142.424C50.472 141.976 50.016 141.632 49.472 141.392C48.944 141.152 48.328 141.032 47.624 141.032C46.92 141.032 46.264 141.168 45.656 141.44C45.064 141.712 44.544 142.096 44.096 142.592C43.664 143.072 43.32 143.648 43.064 144.32C42.824 144.992 42.704 145.72 42.704 146.504C42.704 147.304 42.824 148.04 43.064 148.712C43.32 149.368 43.664 149.944 44.096 150.44C44.528 150.92 45.032 151.296 45.608 151.568C46.2 151.84 46.832 151.976 47.504 151.976C48.272 151.976 48.952 151.816 49.544 151.496C50.136 151.176 50.624 150.728 51.008 150.152L54.128 152.48C53.408 153.488 52.496 154.232 51.392 154.712C50.288 155.192 49.152 155.432 47.984 155.432C46.656 155.432 45.432 155.224 44.312 154.808C43.192 154.392 42.224 153.8 41.408 153.032C40.592 152.248 39.952 151.304 39.488 150.2C39.04 149.096 38.816 147.864 38.816 146.504C38.816 145.144 39.04 143.912 39.488 142.808C39.952 141.704 40.592 140.768 41.408 140C42.224 139.216 43.192 138.616 44.312 138.2C45.432 137.784 46.656 137.576 47.984 137.576C48.464 137.576 48.96 137.624 49.472 137.72C50 137.8 50.512 137.936 51.008 138.128C51.52 138.32 52.008 138.576 52.472 138.896C52.936 139.216 53.352 139.608 53.72 140.072L50.84 142.424ZM66.9337 155H63.4777V153.416H63.4297C63.3017 153.64 63.1337 153.864 62.9257 154.088C62.7337 154.312 62.4937 154.512 62.2057 154.688C61.9177 154.864 61.5897 155.008 61.2217 155.12C60.8537 155.232 60.4537 155.288 60.0217 155.288C59.1097 155.288 58.3657 155.152 57.7897 154.88C57.2297 154.592 56.7897 154.2 56.4697 153.704C56.1657 153.208 55.9577 152.624 55.8457 151.952C55.7497 151.28 55.7017 150.552 55.7017 149.768V143.336H59.3017V149.048C59.3017 149.384 59.3097 149.736 59.3257 150.104C59.3577 150.456 59.4297 150.784 59.5417 151.088C59.6697 151.392 59.8537 151.64 60.0937 151.832C60.3497 152.024 60.7097 152.12 61.1737 152.12C61.6377 152.12 62.0137 152.04 62.3017 151.88C62.5897 151.704 62.8057 151.48 62.9497 151.208C63.1097 150.92 63.2137 150.6 63.2617 150.248C63.3097 149.896 63.3337 149.528 63.3337 149.144V143.336H66.9337V155ZM76.0829 146.768C75.5549 146.112 74.8589 145.784 73.9949 145.784C73.6909 145.784 73.3949 145.856 73.1069 146C72.8189 146.144 72.6749 146.392 72.6749 146.744C72.6749 147.032 72.8189 147.248 73.1069 147.392C73.4109 147.52 73.7869 147.64 74.2349 147.752C74.6989 147.848 75.1869 147.96 75.6989 148.088C76.2269 148.2 76.7149 148.384 77.1629 148.64C77.6269 148.896 78.0029 149.248 78.2909 149.696C78.5949 150.128 78.7469 150.712 78.7469 151.448C78.7469 152.2 78.5789 152.824 78.2429 153.32C77.9229 153.8 77.5069 154.192 76.9949 154.496C76.4829 154.784 75.9069 154.984 75.2669 155.096C74.6269 155.224 73.9949 155.288 73.3709 155.288C72.5549 155.288 71.7309 155.176 70.8989 154.952C70.0669 154.712 69.3629 154.296 68.7869 153.704L70.9709 151.28C71.3069 151.696 71.6749 152.016 72.0749 152.24C72.4909 152.448 72.9709 152.552 73.5149 152.552C73.9309 152.552 74.3069 152.496 74.6429 152.384C74.9789 152.256 75.1469 152.032 75.1469 151.712C75.1469 151.408 74.9949 151.184 74.6909 151.04C74.4029 150.88 74.0269 150.752 73.5629 150.656C73.1149 150.544 72.6269 150.432 72.0989 150.32C71.5869 150.192 71.0989 150.008 70.6349 149.768C70.1869 149.528 69.8109 149.192 69.5069 148.76C69.2189 148.312 69.0749 147.72 69.0749 146.984C69.0749 146.296 69.2109 145.704 69.4829 145.208C69.7709 144.712 70.1389 144.304 70.5869 143.984C71.0509 143.664 71.5789 143.432 72.1709 143.288C72.7629 143.128 73.3629 143.048 73.9709 143.048C74.7389 143.048 75.5149 143.16 76.2989 143.384C77.0829 143.608 77.7469 144.008 78.2909 144.584L76.0829 146.768ZM88.5363 146.216H85.3683V150.104C85.3683 150.424 85.3843 150.72 85.4163 150.992C85.4483 151.248 85.5203 151.472 85.6323 151.664C85.7443 151.856 85.9123 152.008 86.1363 152.12C86.3763 152.216 86.6883 152.264 87.0723 152.264C87.2643 152.264 87.5123 152.248 87.8163 152.216C88.1363 152.168 88.3763 152.072 88.5363 151.928V154.928C88.1363 155.072 87.7203 155.168 87.2883 155.216C86.8563 155.264 86.4323 155.288 86.0163 155.288C85.4083 155.288 84.8483 155.224 84.3363 155.096C83.8243 154.968 83.3763 154.768 82.9923 154.496C82.6083 154.208 82.3043 153.84 82.0803 153.392C81.8723 152.944 81.7683 152.4 81.7683 151.76V146.216H79.4643V143.336H81.7683V139.88H85.3683V143.336H88.5363V146.216ZM89.9338 149.168C89.9338 148.24 90.1018 147.4 90.4378 146.648C90.7738 145.896 91.2298 145.256 91.8058 144.728C92.3978 144.184 93.0858 143.768 93.8698 143.48C94.6698 143.192 95.5178 143.048 96.4138 143.048C97.3098 143.048 98.1498 143.192 98.9338 143.48C99.7338 143.768 100.422 144.184 100.998 144.728C101.59 145.256 102.054 145.896 102.39 146.648C102.726 147.4 102.894 148.24 102.894 149.168C102.894 150.096 102.726 150.936 102.39 151.688C102.054 152.44 101.59 153.088 100.998 153.632C100.422 154.16 99.7338 154.568 98.9338 154.856C98.1498 155.144 97.3098 155.288 96.4138 155.288C95.5178 155.288 94.6698 155.144 93.8698 154.856C93.0858 154.568 92.3978 154.16 91.8058 153.632C91.2298 153.088 90.7738 152.44 90.4378 151.688C90.1018 150.936 89.9338 150.096 89.9338 149.168ZM93.5338 149.168C93.5338 150.048 93.7818 150.76 94.2778 151.304C94.7898 151.848 95.5018 152.12 96.4138 152.12C97.3258 152.12 98.0298 151.848 98.5258 151.304C99.0378 150.76 99.2938 150.048 99.2938 149.168C99.2938 148.288 99.0378 147.576 98.5258 147.032C98.0298 146.488 97.3258 146.216 96.4138 146.216C95.5018 146.216 94.7898 146.488 94.2778 147.032C93.7818 147.576 93.5338 148.288 93.5338 149.168ZM105.014 143.336H108.47V144.92H108.518C108.63 144.696 108.79 144.472 108.998 144.248C109.206 144.024 109.454 143.824 109.742 143.648C110.03 143.472 110.358 143.328 110.726 143.216C111.094 143.104 111.494 143.048 111.926 143.048C112.742 143.048 113.462 143.216 114.086 143.552C114.726 143.888 115.206 144.416 115.526 145.136C115.942 144.384 116.446 143.848 117.038 143.528C117.63 143.208 118.358 143.048 119.222 143.048C120.006 143.048 120.662 143.184 121.19 143.456C121.734 143.712 122.158 144.072 122.462 144.536C122.782 144.984 123.006 145.52 123.134 146.144C123.278 146.752 123.35 147.408 123.35 148.112V155H119.75V148.208C119.75 147.664 119.63 147.2 119.39 146.816C119.166 146.416 118.758 146.216 118.166 146.216C117.75 146.216 117.398 146.288 117.11 146.432C116.838 146.56 116.614 146.744 116.438 146.984C116.278 147.224 116.158 147.504 116.078 147.824C116.014 148.144 115.982 148.48 115.982 148.832V155H112.382V148.832C112.382 148.624 112.374 148.368 112.358 148.064C112.342 147.76 112.286 147.472 112.19 147.2C112.094 146.928 111.934 146.696 111.71 146.504C111.502 146.312 111.19 146.216 110.774 146.216C110.31 146.216 109.934 146.304 109.646 146.48C109.358 146.64 109.134 146.864 108.974 147.152C108.83 147.424 108.734 147.736 108.686 148.088C108.638 148.44 108.614 148.808 108.614 149.192V155H105.014V143.336ZM136.937 152.984C136.361 153.72 135.633 154.288 134.753 154.688C133.873 155.088 132.961 155.288 132.017 155.288C131.121 155.288 130.273 155.144 129.473 154.856C128.689 154.568 128.001 154.16 127.409 153.632C126.833 153.088 126.377 152.44 126.041 151.688C125.705 150.936 125.537 150.096 125.537 149.168C125.537 148.24 125.705 147.4 126.041 146.648C126.377 145.896 126.833 145.256 127.409 144.728C128.001 144.184 128.689 143.768 129.473 143.48C130.273 143.192 131.121 143.048 132.017 143.048C132.849 143.048 133.601 143.192 134.273 143.48C134.961 143.768 135.537 144.184 136.001 144.728C136.481 145.256 136.849 145.896 137.105 146.648C137.361 147.4 137.489 148.24 137.489 149.168V150.296H129.137C129.281 150.984 129.593 151.536 130.073 151.952C130.553 152.352 131.145 152.552 131.849 152.552C132.441 152.552 132.937 152.424 133.337 152.168C133.753 151.896 134.113 151.552 134.417 151.136L136.937 152.984ZM133.889 147.848C133.905 147.24 133.705 146.72 133.289 146.288C132.873 145.856 132.337 145.64 131.681 145.64C131.281 145.64 130.929 145.704 130.625 145.832C130.321 145.96 130.057 146.128 129.833 146.336C129.625 146.528 129.457 146.76 129.329 147.032C129.217 147.288 129.153 147.56 129.137 147.848H133.889ZM139.678 143.336H143.278V145.208H143.326C143.71 144.488 144.166 143.952 144.694 143.6C145.222 143.232 145.886 143.048 146.686 143.048C146.894 143.048 147.102 143.056 147.31 143.072C147.518 143.088 147.71 143.12 147.886 143.168V146.456C147.63 146.376 147.374 146.32 147.118 146.288C146.878 146.24 146.622 146.216 146.35 146.216C145.662 146.216 145.118 146.312 144.718 146.504C144.318 146.696 144.006 146.968 143.782 147.32C143.574 147.656 143.438 148.064 143.374 148.544C143.31 149.024 143.278 149.552 143.278 150.128V155H139.678V143.336ZM39.68 171.008H43.424V188H39.68V171.008ZM46.3736 176.336H49.8296V177.92H49.8776C49.9896 177.696 50.1496 177.472 50.3576 177.248C50.5656 177.024 50.8136 176.824 51.1016 176.648C51.3896 176.472 51.7176 176.328 52.0856 176.216C52.4536 176.104 52.8536 176.048 53.2856 176.048C54.1976 176.048 54.9336 176.192 55.4936 176.48C56.0536 176.752 56.4856 177.136 56.7896 177.632C57.1096 178.128 57.3256 178.712 57.4376 179.384C57.5496 180.056 57.6056 180.784 57.6056 181.568V188H54.0056V182.288C54.0056 181.952 53.9896 181.608 53.9576 181.256C53.9416 180.888 53.8696 180.552 53.7416 180.248C53.6296 179.944 53.4456 179.696 53.1896 179.504C52.9496 179.312 52.5976 179.216 52.1336 179.216C51.6696 179.216 51.2936 179.304 51.0056 179.48C50.7176 179.64 50.4936 179.864 50.3336 180.152C50.1896 180.424 50.0936 180.736 50.0456 181.088C49.9976 181.44 49.9736 181.808 49.9736 182.192V188H46.3736V176.336ZM68.0988 179.216H64.9308V183.104C64.9308 183.424 64.9468 183.72 64.9788 183.992C65.0108 184.248 65.0828 184.472 65.1948 184.664C65.3068 184.856 65.4748 185.008 65.6988 185.12C65.9388 185.216 66.2508 185.264 66.6348 185.264C66.8268 185.264 67.0748 185.248 67.3788 185.216C67.6988 185.168 67.9388 185.072 68.0988 184.928V187.928C67.6988 188.072 67.2828 188.168 66.8508 188.216C66.4188 188.264 65.9948 188.288 65.5788 188.288C64.9708 188.288 64.4108 188.224 63.8988 188.096C63.3868 187.968 62.9388 187.768 62.5548 187.496C62.1708 187.208 61.8668 186.84 61.6428 186.392C61.4348 185.944 61.3308 185.4 61.3308 184.76V179.216H59.0268V176.336H61.3308V172.88H64.9308V176.336H68.0988V179.216ZM80.9683 185.984C80.3923 186.72 79.6643 187.288 78.7843 187.688C77.9043 188.088 76.9923 188.288 76.0483 188.288C75.1523 188.288 74.3043 188.144 73.5043 187.856C72.7203 187.568 72.0323 187.16 71.4403 186.632C70.8643 186.088 70.4083 185.44 70.0723 184.688C69.7363 183.936 69.5683 183.096 69.5683 182.168C69.5683 181.24 69.7363 180.4 70.0723 179.648C70.4083 178.896 70.8643 178.256 71.4403 177.728C72.0323 177.184 72.7203 176.768 73.5043 176.48C74.3043 176.192 75.1523 176.048 76.0483 176.048C76.8803 176.048 77.6323 176.192 78.3043 176.48C78.9923 176.768 79.5683 177.184 80.0323 177.728C80.5123 178.256 80.8803 178.896 81.1363 179.648C81.3923 180.4 81.5203 181.24 81.5203 182.168V183.296H73.1683C73.3123 183.984 73.6243 184.536 74.1043 184.952C74.5843 185.352 75.1763 185.552 75.8803 185.552C76.4723 185.552 76.9683 185.424 77.3683 185.168C77.7843 184.896 78.1443 184.552 78.4483 184.136L80.9683 185.984ZM77.9203 180.848C77.9363 180.24 77.7363 179.72 77.3203 179.288C76.9043 178.856 76.3683 178.64 75.7122 178.64C75.3123 178.64 74.9603 178.704 74.6562 178.832C74.3523 178.96 74.0883 179.128 73.8643 179.336C73.6563 179.528 73.4883 179.76 73.3603 180.032C73.2483 180.288 73.1843 180.56 73.1683 180.848H77.9203ZM83.7095 176.336H87.3095V178.208H87.3575C87.7415 177.488 88.1975 176.952 88.7255 176.6C89.2535 176.232 89.9175 176.048 90.7175 176.048C90.9255 176.048 91.1335 176.056 91.3415 176.072C91.5495 176.088 91.7415 176.12 91.9175 176.168V179.456C91.6615 179.376 91.4055 179.32 91.1495 179.288C90.9095 179.24 90.6535 179.216 90.3815 179.216C89.6935 179.216 89.1495 179.312 88.7495 179.504C88.3495 179.696 88.0375 179.968 87.8135 180.32C87.6055 180.656 87.4695 181.064 87.4055 181.544C87.3415 182.024 87.3095 182.552 87.3095 183.128V188H83.7095V176.336ZM92.2589 176.336H96.1469L99.0989 184.256H99.1469L101.883 176.336H105.507L100.899 188H97.0829L92.2589 176.336ZM106.867 176.336H110.467V188H106.867V176.336ZM106.579 172.664C106.579 172.088 106.779 171.6 107.179 171.2C107.595 170.784 108.091 170.576 108.667 170.576C109.243 170.576 109.731 170.784 110.131 171.2C110.547 171.6 110.755 172.088 110.755 172.664C110.755 173.24 110.547 173.736 110.131 174.152C109.731 174.552 109.243 174.752 108.667 174.752C108.091 174.752 107.595 174.552 107.179 174.152C106.779 173.736 106.579 173.24 106.579 172.664ZM124.093 185.984C123.517 186.72 122.789 187.288 121.909 187.688C121.029 188.088 120.117 188.288 119.173 188.288C118.277 188.288 117.429 188.144 116.629 187.856C115.845 187.568 115.157 187.16 114.565 186.632C113.989 186.088 113.533 185.44 113.197 184.688C112.861 183.936 112.693 183.096 112.693 182.168C112.693 181.24 112.861 180.4 113.197 179.648C113.533 178.896 113.989 178.256 114.565 177.728C115.157 177.184 115.845 176.768 116.629 176.48C117.429 176.192 118.277 176.048 119.173 176.048C120.005 176.048 120.757 176.192 121.429 176.48C122.117 176.768 122.693 177.184 123.157 177.728C123.637 178.256 124.005 178.896 124.261 179.648C124.517 180.4 124.645 181.24 124.645 182.168V183.296H116.293C116.437 183.984 116.749 184.536 117.229 184.952C117.709 185.352 118.301 185.552 119.005 185.552C119.597 185.552 120.093 185.424 120.493 185.168C120.909 184.896 121.269 184.552 121.573 184.136L124.093 185.984ZM121.045 180.848C121.061 180.24 120.861 179.72 120.445 179.288C120.029 178.856 119.493 178.64 118.837 178.64C118.437 178.64 118.085 178.704 117.781 178.832C117.477 178.96 117.213 179.128 116.989 179.336C116.781 179.528 116.613 179.76 116.485 180.032C116.373 180.288 116.309 180.56 116.293 180.848H121.045ZM125.442 176.336H129.283L131.659 183.656H131.707L133.699 176.336H137.635L139.795 183.656H139.843L142.027 176.336H145.675L141.523 188H137.971L135.547 180.248H135.499L133.339 188H129.715L125.442 176.336ZM153.427 179.768C152.899 179.112 152.203 178.784 151.339 178.784C151.035 178.784 150.739 178.856 150.451 179C150.163 179.144 150.019 179.392 150.019 179.744C150.019 180.032 150.163 180.248 150.451 180.392C150.755 180.52 151.131 180.64 151.579 180.752C152.043 180.848 152.531 180.96 153.043 181.088C153.571 181.2 154.059 181.384 154.507 181.64C154.971 181.896 155.347 182.248 155.635 182.696C155.939 183.128 156.091 183.712 156.091 184.448C156.091 185.2 155.923 185.824 155.587 186.32C155.267 186.8 154.851 187.192 154.339 187.496C153.827 187.784 153.251 187.984 152.611 188.096C151.971 188.224 151.339 188.288 150.715 188.288C149.899 188.288 149.075 188.176 148.243 187.952C147.411 187.712 146.707 187.296 146.131 186.704L148.315 184.28C148.651 184.696 149.019 185.016 149.419 185.24C149.835 185.448 150.315 185.552 150.859 185.552C151.275 185.552 151.651 185.496 151.987 185.384C152.323 185.256 152.491 185.032 152.491 184.712C152.491 184.408 152.339 184.184 152.035 184.04C151.747 183.88 151.371 183.752 150.907 183.656C150.459 183.544 149.971 183.432 149.443 183.32C148.931 183.192 148.443 183.008 147.979 182.768C147.531 182.528 147.155 182.192 146.851 181.76C146.563 181.312 146.419 180.72 146.419 179.984C146.419 179.296 146.555 178.704 146.827 178.208C147.115 177.712 147.483 177.304 147.931 176.984C148.395 176.664 148.923 176.432 149.515 176.288C150.107 176.128 150.707 176.048 151.315 176.048C152.083 176.048 152.859 176.16 153.643 176.384C154.427 176.608 155.091 177.008 155.635 177.584L153.427 179.768Z" fill="black"/>
<rect x="271" y="65" width="197" height="197" fill="white"/>
<path d="M321.84 142.424C321.472 141.976 321.016 141.632 320.472 141.392C319.944 141.152 319.328 141.032 318.624 141.032C317.92 141.032 317.264 141.168 316.656 141.44C316.064 141.712 315.544 142.096 315.096 142.592C314.664 143.072 314.32 143.648 314.064 144.32C313.824 144.992 313.704 145.72 313.704 146.504C313.704 147.304 313.824 148.04 314.064 148.712C314.32 149.368 314.664 149.944 315.096 150.44C315.528 150.92 316.032 151.296 316.608 151.568C317.2 151.84 317.832 151.976 318.504 151.976C319.272 151.976 319.952 151.816 320.544 151.496C321.136 151.176 321.624 150.728 322.008 150.152L325.128 152.48C324.408 153.488 323.496 154.232 322.392 154.712C321.288 155.192 320.152 155.432 318.984 155.432C317.656 155.432 316.432 155.224 315.312 154.808C314.192 154.392 313.224 153.8 312.408 153.032C311.592 152.248 310.952 151.304 310.488 150.2C310.04 149.096 309.816 147.864 309.816 146.504C309.816 145.144 310.04 143.912 310.488 142.808C310.952 141.704 311.592 140.768 312.408 140C313.224 139.216 314.192 138.616 315.312 138.2C316.432 137.784 317.656 137.576 318.984 137.576C319.464 137.576 319.96 137.624 320.472 137.72C321 137.8 321.512 137.936 322.008 138.128C322.52 138.32 323.008 138.576 323.472 138.896C323.936 139.216 324.352 139.608 324.72 140.072L321.84 142.424ZM337.934 155H334.478V153.416H334.43C334.302 153.64 334.134 153.864 333.926 154.088C333.734 154.312 333.494 154.512 333.206 154.688C332.918 154.864 332.59 155.008 332.222 155.12C331.854 155.232 331.454 155.288 331.022 155.288C330.11 155.288 329.366 155.152 328.79 154.88C328.23 154.592 327.79 154.2 327.47 153.704C327.166 153.208 326.958 152.624 326.846 151.952C326.75 151.28 326.702 150.552 326.702 149.768V143.336H330.302V149.048C330.302 149.384 330.31 149.736 330.326 150.104C330.358 150.456 330.43 150.784 330.542 151.088C330.67 151.392 330.854 151.64 331.094 151.832C331.35 152.024 331.71 152.12 332.174 152.12C332.638 152.12 333.014 152.04 333.302 151.88C333.59 151.704 333.806 151.48 333.95 151.208C334.11 150.92 334.214 150.6 334.262 150.248C334.31 149.896 334.334 149.528 334.334 149.144V143.336H337.934V155ZM347.083 146.768C346.555 146.112 345.859 145.784 344.995 145.784C344.691 145.784 344.395 145.856 344.107 146C343.819 146.144 343.675 146.392 343.675 146.744C343.675 147.032 343.819 147.248 344.107 147.392C344.411 147.52 344.787 147.64 345.235 147.752C345.699 147.848 346.187 147.96 346.699 148.088C347.227 148.2 347.715 148.384 348.163 148.64C348.627 148.896 349.003 149.248 349.291 149.696C349.595 150.128 349.747 150.712 349.747 151.448C349.747 152.2 349.579 152.824 349.243 153.32C348.923 153.8 348.507 154.192 347.995 154.496C347.483 154.784 346.907 154.984 346.267 155.096C345.627 155.224 344.995 155.288 344.371 155.288C343.555 155.288 342.731 155.176 341.899 154.952C341.067 154.712 340.363 154.296 339.787 153.704L341.971 151.28C342.307 151.696 342.675 152.016 343.075 152.24C343.491 152.448 343.971 152.552 344.515 152.552C344.931 152.552 345.307 152.496 345.643 152.384C345.979 152.256 346.147 152.032 346.147 151.712C346.147 151.408 345.995 151.184 345.691 151.04C345.403 150.88 345.027 150.752 344.563 150.656C344.115 150.544 343.627 150.432 343.099 150.32C342.587 150.192 342.099 150.008 341.635 149.768C341.187 149.528 340.811 149.192 340.507 148.76C340.219 148.312 340.075 147.72 340.075 146.984C340.075 146.296 340.211 145.704 340.483 145.208C340.771 144.712 341.139 144.304 341.587 143.984C342.051 143.664 342.579 143.432 343.171 143.288C343.763 143.128 344.363 143.048 344.971 143.048C345.739 143.048 346.515 143.16 347.299 143.384C348.083 143.608 348.747 144.008 349.291 144.584L347.083 146.768ZM359.536 146.216H356.368V150.104C356.368 150.424 356.384 150.72 356.416 150.992C356.448 151.248 356.52 151.472 356.632 151.664C356.744 151.856 356.912 152.008 357.136 152.12C357.376 152.216 357.688 152.264 358.072 152.264C358.264 152.264 358.512 152.248 358.816 152.216C359.136 152.168 359.376 152.072 359.536 151.928V154.928C359.136 155.072 358.72 155.168 358.288 155.216C357.856 155.264 357.432 155.288 357.016 155.288C356.408 155.288 355.848 155.224 355.336 155.096C354.824 154.968 354.376 154.768 353.992 154.496C353.608 154.208 353.304 153.84 353.08 153.392C352.872 152.944 352.768 152.4 352.768 151.76V146.216H350.464V143.336H352.768V139.88H356.368V143.336H359.536V146.216ZM360.934 149.168C360.934 148.24 361.102 147.4 361.438 146.648C361.774 145.896 362.23 145.256 362.806 144.728C363.398 144.184 364.086 143.768 364.87 143.48C365.67 143.192 366.518 143.048 367.414 143.048C368.31 143.048 369.15 143.192 369.934 143.48C370.734 143.768 371.422 144.184 371.998 144.728C372.59 145.256 373.054 145.896 373.39 146.648C373.726 147.4 373.894 148.24 373.894 149.168C373.894 150.096 373.726 150.936 373.39 151.688C373.054 152.44 372.59 153.088 371.998 153.632C371.422 154.16 370.734 154.568 369.934 154.856C369.15 155.144 368.31 155.288 367.414 155.288C366.518 155.288 365.67 155.144 364.87 154.856C364.086 154.568 363.398 154.16 362.806 153.632C362.23 153.088 361.774 152.44 361.438 151.688C361.102 150.936 360.934 150.096 360.934 149.168ZM364.534 149.168C364.534 150.048 364.782 150.76 365.278 151.304C365.79 151.848 366.502 152.12 367.414 152.12C368.326 152.12 369.03 151.848 369.526 151.304C370.038 150.76 370.294 150.048 370.294 149.168C370.294 148.288 370.038 147.576 369.526 147.032C369.03 146.488 368.326 146.216 367.414 146.216C366.502 146.216 365.79 146.488 365.278 147.032C364.782 147.576 364.534 148.288 364.534 149.168ZM376.014 143.336H379.47V144.92H379.518C379.63 144.696 379.79 144.472 379.998 144.248C380.206 144.024 380.454 143.824 380.742 143.648C381.03 143.472 381.358 143.328 381.726 143.216C382.094 143.104 382.494 143.048 382.926 143.048C383.742 143.048 384.462 143.216 385.086 143.552C385.726 143.888 386.206 144.416 386.526 145.136C386.942 144.384 387.446 143.848 388.038 143.528C388.63 143.208 389.358 143.048 390.222 143.048C391.006 143.048 391.662 143.184 392.19 143.456C392.734 143.712 393.158 144.072 393.462 144.536C393.782 144.984 394.006 145.52 394.134 146.144C394.278 146.752 394.35 147.408 394.35 148.112V155H390.75V148.208C390.75 147.664 390.63 147.2 390.39 146.816C390.166 146.416 389.758 146.216 389.166 146.216C388.75 146.216 388.398 146.288 388.11 146.432C387.838 146.56 387.614 146.744 387.438 146.984C387.278 147.224 387.158 147.504 387.078 147.824C387.014 148.144 386.982 148.48 386.982 148.832V155H383.382V148.832C383.382 148.624 383.374 148.368 383.358 148.064C383.342 147.76 383.286 147.472 383.19 147.2C383.094 146.928 382.934 146.696 382.71 146.504C382.502 146.312 382.19 146.216 381.774 146.216C381.31 146.216 380.934 146.304 380.646 146.48C380.358 146.64 380.134 146.864 379.974 147.152C379.83 147.424 379.734 147.736 379.686 148.088C379.638 148.44 379.614 148.808 379.614 149.192V155H376.014V143.336ZM407.937 152.984C407.361 153.72 406.633 154.288 405.753 154.688C404.873 155.088 403.961 155.288 403.017 155.288C402.121 155.288 401.273 155.144 400.473 154.856C399.689 154.568 399.001 154.16 398.409 153.632C397.833 153.088 397.377 152.44 397.041 151.688C396.705 150.936 396.537 150.096 396.537 149.168C396.537 148.24 396.705 147.4 397.041 146.648C397.377 145.896 397.833 145.256 398.409 144.728C399.001 144.184 399.689 143.768 400.473 143.48C401.273 143.192 402.121 143.048 403.017 143.048C403.849 143.048 404.601 143.192 405.273 143.48C405.961 143.768 406.537 144.184 407.001 144.728C407.481 145.256 407.849 145.896 408.105 146.648C408.361 147.4 408.489 148.24 408.489 149.168V150.296H400.137C400.281 150.984 400.593 151.536 401.073 151.952C401.553 152.352 402.145 152.552 402.849 152.552C403.441 152.552 403.937 152.424 404.337 152.168C404.753 151.896 405.113 151.552 405.417 151.136L407.937 152.984ZM404.889 147.848C404.905 147.24 404.705 146.72 404.289 146.288C403.873 145.856 403.337 145.64 402.681 145.64C402.281 145.64 401.929 145.704 401.625 145.832C401.321 145.96 401.057 146.128 400.833 146.336C400.625 146.528 400.457 146.76 400.329 147.032C400.217 147.288 400.153 147.56 400.137 147.848H404.889ZM410.678 143.336H414.278V145.208H414.326C414.71 144.488 415.166 143.952 415.694 143.6C416.222 143.232 416.886 143.048 417.686 143.048C417.894 143.048 418.102 143.056 418.31 143.072C418.518 143.088 418.71 143.12 418.886 143.168V146.456C418.63 146.376 418.374 146.32 418.118 146.288C417.878 146.24 417.622 146.216 417.35 146.216C416.662 146.216 416.118 146.312 415.718 146.504C415.318 146.696 415.006 146.968 414.782 147.32C414.574 147.656 414.438 148.064 414.374 148.544C414.31 149.024 414.278 149.552 414.278 150.128V155H410.678V143.336ZM310.68 171.008H314.424V188H310.68V171.008ZM317.374 176.336H320.83V177.92H320.878C320.99 177.696 321.15 177.472 321.358 177.248C321.566 177.024 321.814 176.824 322.102 176.648C322.39 176.472 322.718 176.328 323.086 176.216C323.454 176.104 323.854 176.048 324.286 176.048C325.198 176.048 325.934 176.192 326.494 176.48C327.054 176.752 327.486 177.136 327.79 177.632C328.11 178.128 328.326 178.712 328.438 179.384C328.55 180.056 328.606 180.784 328.606 181.568V188H325.006V182.288C325.006 181.952 324.99 181.608 324.958 181.256C324.942 180.888 324.87 180.552 324.742 180.248C324.63 179.944 324.446 179.696 324.19 179.504C323.95 179.312 323.598 179.216 323.134 179.216C322.67 179.216 322.294 179.304 322.006 179.48C321.718 179.64 321.494 179.864 321.334 180.152C321.19 180.424 321.094 180.736 321.046 181.088C320.998 181.44 320.974 181.808 320.974 182.192V188H317.374V176.336ZM339.099 179.216H335.931V183.104C335.931 183.424 335.947 183.72 335.979 183.992C336.011 184.248 336.083 184.472 336.195 184.664C336.307 184.856 336.475 185.008 336.699 185.12C336.939 185.216 337.251 185.264 337.635 185.264C337.827 185.264 338.075 185.248 338.379 185.216C338.699 185.168 338.939 185.072 339.099 184.928V187.928C338.699 188.072 338.283 188.168 337.851 188.216C337.419 188.264 336.995 188.288 336.579 188.288C335.971 188.288 335.411 188.224 334.899 188.096C334.387 187.968 333.939 187.768 333.555 187.496C333.171 187.208 332.867 186.84 332.643 186.392C332.435 185.944 332.331 185.4 332.331 184.76V179.216H330.027V176.336H332.331V172.88H335.931V176.336H339.099V179.216ZM351.968 185.984C351.392 186.72 350.664 187.288 349.784 187.688C348.904 188.088 347.992 188.288 347.048 188.288C346.152 188.288 345.304 188.144 344.504 187.856C343.72 187.568 343.032 187.16 342.44 186.632C341.864 186.088 341.408 185.44 341.072 184.688C340.736 183.936 340.568 183.096 340.568 182.168C340.568 181.24 340.736 180.4 341.072 179.648C341.408 178.896 341.864 178.256 342.44 177.728C343.032 177.184 343.72 176.768 344.504 176.48C345.304 176.192 346.152 176.048 347.048 176.048C347.88 176.048 348.632 176.192 349.304 176.48C349.992 176.768 350.568 177.184 351.032 177.728C351.512 178.256 351.88 178.896 352.136 179.648C352.392 180.4 352.52 181.24 352.52 182.168V183.296H344.168C344.312 183.984 344.624 184.536 345.104 184.952C345.584 185.352 346.176 185.552 346.88 185.552C347.472 185.552 347.968 185.424 348.368 185.168C348.784 184.896 349.144 184.552 349.448 184.136L351.968 185.984ZM348.92 180.848C348.936 180.24 348.736 179.72 348.32 179.288C347.904 178.856 347.368 178.64 346.712 178.64C346.312 178.64 345.96 178.704 345.656 178.832C345.352 178.96 345.088 179.128 344.864 179.336C344.656 179.528 344.488 179.76 344.36 180.032C344.248 180.288 344.184 180.56 344.168 180.848H348.92ZM354.71 176.336H358.31V178.208H358.358C358.742 177.488 359.198 176.952 359.726 176.6C360.254 176.232 360.918 176.048 361.718 176.048C361.926 176.048 362.134 176.056 362.342 176.072C362.55 176.088 362.742 176.12 362.918 176.168V179.456C362.662 179.376 362.406 179.32 362.15 179.288C361.91 179.24 361.654 179.216 361.382 179.216C360.694 179.216 360.15 179.312 359.75 179.504C359.35 179.696 359.038 179.968 358.814 180.32C358.606 180.656 358.47 181.064 358.406 181.544C358.342 182.024 358.31 182.552 358.31 183.128V188H354.71V176.336ZM363.259 176.336H367.147L370.099 184.256H370.147L372.883 176.336H376.507L371.899 188H368.083L363.259 176.336ZM377.867 176.336H381.467V188H377.867V176.336ZM377.579 172.664C377.579 172.088 377.779 171.6 378.179 171.2C378.595 170.784 379.091 170.576 379.667 170.576C380.243 170.576 380.731 170.784 381.131 171.2C381.547 171.6 381.755 172.088 381.755 172.664C381.755 173.24 381.547 173.736 381.131 174.152C380.731 174.552 380.243 174.752 379.667 174.752C379.091 174.752 378.595 174.552 378.179 174.152C377.779 173.736 377.579 173.24 377.579 172.664ZM395.093 185.984C394.517 186.72 393.789 187.288 392.909 187.688C392.029 188.088 391.117 188.288 390.173 188.288C389.277 188.288 388.429 188.144 387.629 187.856C386.845 187.568 386.157 187.16 385.565 186.632C384.989 186.088 384.533 185.44 384.197 184.688C383.861 183.936 383.693 183.096 383.693 182.168C383.693 181.24 383.861 180.4 384.197 179.648C384.533 178.896 384.989 178.256 385.565 177.728C386.157 177.184 386.845 176.768 387.629 176.48C388.429 176.192 389.277 176.048 390.173 176.048C391.005 176.048 391.757 176.192 392.429 176.48C393.117 176.768 393.693 177.184 394.157 177.728C394.637 178.256 395.005 178.896 395.261 179.648C395.517 180.4 395.645 181.24 395.645 182.168V183.296H387.293C387.437 183.984 387.749 184.536 388.229 184.952C388.709 185.352 389.301 185.552 390.005 185.552C390.597 185.552 391.093 185.424 391.493 185.168C391.909 184.896 392.269 184.552 392.573 184.136L395.093 185.984ZM392.045 180.848C392.061 180.24 391.861 179.72 391.445 179.288C391.029 178.856 390.493 178.64 389.837 178.64C389.437 178.64 389.085 178.704 388.781 178.832C388.477 178.96 388.213 179.128 387.989 179.336C387.781 179.528 387.613 179.76 387.485 180.032C387.373 180.288 387.309 180.56 387.293 180.848H392.045ZM396.442 176.336H400.283L402.659 183.656H402.707L404.699 176.336H408.635L410.795 183.656H410.843L413.027 176.336H416.675L412.523 188H408.971L406.547 180.248H406.499L404.339 188H400.715L396.442 176.336ZM424.427 179.768C423.899 179.112 423.203 178.784 422.339 178.784C422.035 178.784 421.739 178.856 421.451 179C421.163 179.144 421.019 179.392 421.019 179.744C421.019 180.032 421.163 180.248 421.451 180.392C421.755 180.52 422.131 180.64 422.579 180.752C423.043 180.848 423.531 180.96 424.043 181.088C424.571 181.2 425.059 181.384 425.507 181.64C425.971 181.896 426.347 182.248 426.635 182.696C426.939 183.128 427.091 183.712 427.091 184.448C427.091 185.2 426.923 185.824 426.587 186.32C426.267 186.8 425.851 187.192 425.339 187.496C424.827 187.784 424.251 187.984 423.611 188.096C422.971 188.224 422.339 188.288 421.715 188.288C420.899 188.288 420.075 188.176 419.243 187.952C418.411 187.712 417.707 187.296 417.131 186.704L419.315 184.28C419.651 184.696 420.019 185.016 420.419 185.24C420.835 185.448 421.315 185.552 421.859 185.552C422.275 185.552 422.651 185.496 422.987 185.384C423.323 185.256 423.491 185.032 423.491 184.712C423.491 184.408 423.339 184.184 423.035 184.04C422.747 183.88 422.371 183.752 421.907 183.656C421.459 183.544 420.971 183.432 420.443 183.32C419.931 183.192 419.443 183.008 418.979 182.768C418.531 182.528 418.155 182.192 417.851 181.76C417.563 181.312 417.419 180.72 417.419 179.984C417.419 179.296 417.555 178.704 417.827 178.208C418.115 177.712 418.483 177.304 418.931 176.984C419.395 176.664 419.923 176.432 420.515 176.288C421.107 176.128 421.707 176.048 422.315 176.048C423.083 176.048 423.859 176.16 424.643 176.384C425.427 176.608 426.091 177.008 426.635 177.584L424.427 179.768Z" fill="black"/>
<path d="M178.569 43.3073C178.187 45.2021 179.413 47.0482 181.307 47.4308C183.202 47.8133 185.048 46.5874 185.431 44.6927L178.569 43.3073ZM286.9 46.8003C288.447 47.9599 290.641 47.6462 291.8 46.0996L310.697 20.8969C311.856 19.3503 311.543 17.1566 309.996 15.997C308.449 14.8374 306.256 15.1511 305.096 16.6977L288.299 39.1001L265.897 22.3033C264.35 21.1437 262.157 21.4574 260.997 23.004C259.837 24.5506 260.151 26.7443 261.698 27.9039L286.9 46.8003ZM182 44C185.431 44.6927 185.43 44.6944 185.43 44.696C185.43 44.6963 185.43 44.6977 185.43 44.6984C185.429 44.6997 185.429 44.7004 185.429 44.7005C185.429 44.7007 185.43 44.6986 185.431 44.6941C185.432 44.6851 185.436 44.6668 185.442 44.6395C185.454 44.5849 185.475 44.4942 185.505 44.3699C185.565 44.1213 185.662 43.7386 185.804 43.2409C186.088 42.2448 186.549 40.7934 187.244 39.0388C188.637 35.5219 190.95 30.8352 194.617 26.1602C201.867 16.9178 214.559 7.5 236.678 7.5V0.5C212.195 0.5 197.548 11.0822 189.109 21.8398C184.932 27.1648 182.314 32.4781 180.736 36.4612C179.946 38.4566 179.412 40.1302 179.072 41.3216C178.902 41.9177 178.78 42.3943 178.699 42.7316C178.659 42.9003 178.628 43.0342 178.607 43.131C178.596 43.1794 178.588 43.2185 178.582 43.2479C178.578 43.2627 178.576 43.275 178.574 43.2849C178.573 43.2899 178.572 43.2942 178.571 43.298C178.571 43.2998 178.57 43.3022 178.57 43.3031C178.57 43.3053 178.569 43.3073 182 44ZM236.678 7.5C258.781 7.5 270.838 16.8985 277.482 26.0554C280.853 30.7019 282.88 35.3641 284.062 38.8683C284.651 40.6159 285.025 42.0616 285.249 43.0535C285.362 43.549 285.436 43.9299 285.481 44.1769C285.503 44.3004 285.518 44.3903 285.527 44.4443C285.531 44.4712 285.534 44.4892 285.536 44.4978C285.536 44.5021 285.536 44.5041 285.536 44.5037C285.536 44.5036 285.536 44.5028 285.536 44.5014C285.536 44.5007 285.536 44.4992 285.536 44.4989C285.536 44.4973 285.535 44.4955 289 44C292.465 43.5045 292.464 43.5024 292.464 43.5002C292.464 43.4993 292.464 43.4969 292.463 43.495C292.463 43.4911 292.462 43.4867 292.461 43.4817C292.46 43.4716 292.458 43.4591 292.456 43.4442C292.451 43.4144 292.445 43.375 292.437 43.3262C292.421 43.2288 292.399 43.0941 292.368 42.9246C292.306 42.5857 292.212 42.1072 292.077 41.509C291.806 40.3134 291.37 38.6341 290.695 36.6317C289.347 32.6359 287.032 27.2981 283.148 21.9446C275.281 11.1015 261.177 0.5 236.678 0.5V7.5Z" fill="white"/>
<path d="M178.547 283.569C178.232 281.662 179.524 279.861 181.431 279.547C183.338 279.232 185.139 280.524 185.453 282.431L178.547 283.569ZM286.829 280.255C288.345 279.056 290.546 279.313 291.745 280.829L311.286 305.535C312.485 307.051 312.228 309.252 310.712 310.451C309.196 311.651 306.995 311.394 305.796 309.877L288.426 287.916L266.465 305.286C264.949 306.485 262.748 306.228 261.549 304.712C260.349 303.196 260.606 300.995 262.123 299.796L286.829 280.255ZM182 283C185.453 282.431 185.453 282.429 185.453 282.428C185.453 282.428 185.453 282.427 185.453 282.427C185.453 282.426 185.453 282.426 185.453 282.427C185.453 282.429 185.454 282.434 185.455 282.441C185.458 282.456 185.462 282.482 185.469 282.52C185.483 282.595 185.505 282.715 185.536 282.875C185.6 283.197 185.701 283.684 185.847 284.312C186.14 285.569 186.612 287.388 187.32 289.579C188.741 293.975 191.093 299.807 194.811 305.613C202.194 317.143 214.873 328.5 236.678 328.5V335.5C211.88 335.5 197.221 322.357 188.916 309.387C184.789 302.943 182.209 296.525 180.66 291.733C179.883 289.331 179.36 287.321 179.029 285.899C178.864 285.187 178.746 284.621 178.668 284.225C178.629 284.027 178.6 283.871 178.58 283.761C178.57 283.706 178.562 283.662 178.557 283.63C178.554 283.614 178.552 283.601 178.55 283.591C178.549 283.586 178.549 283.581 178.548 283.578C178.548 283.576 178.547 283.574 178.547 283.573C178.547 283.571 178.547 283.569 182 283ZM236.678 328.5C258.452 328.5 270.515 317.178 277.303 305.716C280.729 299.932 282.796 294.116 284.004 289.727C284.606 287.54 284.99 285.725 285.221 284.47C285.337 283.843 285.415 283.357 285.462 283.036C285.486 282.876 285.502 282.757 285.512 282.682C285.517 282.645 285.521 282.619 285.522 282.604C285.523 282.596 285.524 282.592 285.524 282.59C285.524 282.589 285.524 282.589 285.524 282.59C285.524 282.59 285.524 282.591 285.524 282.592C285.524 282.593 285.524 282.594 289 283C292.476 283.406 292.476 283.408 292.476 283.41C292.476 283.41 292.476 283.413 292.475 283.414C292.475 283.418 292.474 283.422 292.474 283.428C292.473 283.438 292.471 283.451 292.469 283.467C292.465 283.499 292.459 283.543 292.452 283.599C292.437 283.71 292.416 283.866 292.386 284.064C292.328 284.461 292.237 285.028 292.105 285.741C291.842 287.166 291.415 289.179 290.753 291.585C289.432 296.384 287.155 302.818 283.326 309.284C275.604 322.322 261.506 335.5 236.678 335.5V328.5Z" fill="white"/>
</svg>
