<svg width="1005" height="243" viewBox="0 0 1005 243" fill="none" xmlns="http://www.w3.org/2000/svg">
<ellipse cx="61.5" cy="61" rx="61.5" ry="61" fill="#8B31FF"/>
<ellipse cx="281.5" cy="61" rx="61.5" ry="61" fill="#8B31FF"/>
<ellipse cx="502.5" cy="61" rx="61.5" ry="61" fill="#8B31FF"/>
<ellipse cx="723.5" cy="61" rx="61.5" ry="61" fill="#8B31FF"/>
<ellipse cx="943.5" cy="61" rx="61.5" ry="61" fill="#8B31FF"/>
<path d="M32.58 53.84H38.16C39.0933 53.84 39.9933 53.9867 40.86 54.28C41.7267 54.56 42.4933 54.9933 43.16 55.58C43.8267 56.1667 44.36 56.9067 44.76 57.8C45.16 58.68 45.36 59.72 45.36 60.92C45.36 62.1333 45.1267 63.1867 44.66 64.08C44.2067 64.96 43.6133 65.6933 42.88 66.28C42.16 66.8533 41.3533 67.2867 40.46 67.58C39.58 67.86 38.7133 68 37.86 68H32.58V53.84ZM36.98 65.72C37.7667 65.72 38.5067 65.6333 39.2 65.46C39.9067 65.2733 40.52 64.9933 41.04 64.62C41.56 64.2333 41.9667 63.74 42.26 63.14C42.5667 62.5267 42.72 61.7867 42.72 60.92C42.72 60.0667 42.5867 59.3333 42.32 58.72C42.0533 58.1067 41.68 57.6133 41.2 57.24C40.7333 56.8533 40.1733 56.5733 39.52 56.4C38.88 56.2133 38.1733 56.12 37.4 56.12H35.1V65.72H36.98ZM49.4558 64.04C49.5358 64.76 49.8158 65.32 50.2958 65.72C50.7758 66.12 51.3558 66.32 52.0358 66.32C52.6358 66.32 53.1358 66.2 53.5358 65.96C53.9491 65.7067 54.3091 65.3933 54.6158 65.02L56.3358 66.32C55.7758 67.0133 55.1491 67.5067 54.4558 67.8C53.7624 68.0933 53.0358 68.24 52.2758 68.24C51.5558 68.24 50.8758 68.12 50.2358 67.88C49.5958 67.64 49.0424 67.3 48.5758 66.86C48.1091 66.42 47.7358 65.8933 47.4558 65.28C47.1891 64.6533 47.0558 63.96 47.0558 63.2C47.0558 62.44 47.1891 61.7533 47.4558 61.14C47.7358 60.5133 48.1091 59.98 48.5758 59.54C49.0424 59.1 49.5958 58.76 50.2358 58.52C50.8758 58.28 51.5558 58.16 52.2758 58.16C52.9424 58.16 53.5491 58.28 54.0958 58.52C54.6558 58.7467 55.1291 59.08 55.5158 59.52C55.9158 59.96 56.2224 60.5067 56.4358 61.16C56.6624 61.8 56.7758 62.54 56.7758 63.38V64.04H49.4558ZM54.3758 62.24C54.3624 61.5333 54.1424 60.98 53.7158 60.58C53.2891 60.1667 52.6958 59.96 51.9358 59.96C51.2158 59.96 50.6424 60.1667 50.2158 60.58C49.8024 60.9933 49.5491 61.5467 49.4558 62.24H54.3758ZM59.8802 60.44H57.9002V58.4H59.8802V57.04C59.8802 56.3733 59.9268 55.7733 60.0202 55.24C60.1135 54.6933 60.2868 54.2267 60.5402 53.84C60.8068 53.4533 61.1735 53.16 61.6402 52.96C62.1068 52.7467 62.7135 52.64 63.4602 52.64C64.0068 52.64 64.5135 52.6867 64.9802 52.78L64.8202 54.82C64.6468 54.78 64.4802 54.7467 64.3202 54.72C64.1602 54.6933 63.9935 54.68 63.8202 54.68C63.4868 54.68 63.2202 54.7333 63.0202 54.84C62.8202 54.9467 62.6602 55.0933 62.5402 55.28C62.4335 55.4533 62.3602 55.66 62.3202 55.9C62.2935 56.14 62.2802 56.3933 62.2802 56.66V58.4H64.5002V60.44H62.2802V68H59.8802V60.44ZM66.0602 58.4H68.4602V68H66.0602V58.4ZM65.7402 55.14C65.7402 54.7533 65.8802 54.42 66.1602 54.14C66.4535 53.8467 66.8202 53.7 67.2602 53.7C67.7002 53.7 68.0668 53.84 68.3602 54.12C68.6668 54.3867 68.8202 54.7267 68.8202 55.14C68.8202 55.5533 68.6668 55.9 68.3602 56.18C68.0668 56.4467 67.7002 56.58 67.2602 56.58C66.8202 56.58 66.4535 56.44 66.1602 56.16C65.8802 55.8667 65.7402 55.5267 65.7402 55.14ZM70.8756 58.4H73.1556V59.94H73.1956C73.4223 59.46 73.769 59.0467 74.2356 58.7C74.7023 58.34 75.3356 58.16 76.1356 58.16C76.7756 58.16 77.3156 58.2667 77.7556 58.48C78.209 58.6933 78.5756 58.9733 78.8556 59.32C79.1356 59.6667 79.3356 60.0667 79.4556 60.52C79.5756 60.9733 79.6356 61.4467 79.6356 61.94V68H77.2356V63.14C77.2356 62.8733 77.2223 62.58 77.1956 62.26C77.169 61.9267 77.0956 61.62 76.9756 61.34C76.869 61.0467 76.6956 60.8067 76.4556 60.62C76.2156 60.42 75.889 60.32 75.4756 60.32C75.0756 60.32 74.7356 60.3867 74.4556 60.52C74.189 60.6533 73.9623 60.8333 73.7756 61.06C73.6023 61.2867 73.4756 61.5467 73.3956 61.84C73.3156 62.1333 73.2756 62.44 73.2756 62.76V68H70.8756V58.4ZM84.28 64.04C84.36 64.76 84.64 65.32 85.12 65.72C85.6 66.12 86.18 66.32 86.86 66.32C87.46 66.32 87.96 66.2 88.36 65.96C88.7733 65.7067 89.1333 65.3933 89.44 65.02L91.16 66.32C90.6 67.0133 89.9733 67.5067 89.28 67.8C88.5867 68.0933 87.86 68.24 87.1 68.24C86.38 68.24 85.7 68.12 85.06 67.88C84.42 67.64 83.8667 67.3 83.4 66.86C82.9333 66.42 82.56 65.8933 82.28 65.28C82.0133 64.6533 81.88 63.96 81.88 63.2C81.88 62.44 82.0133 61.7533 82.28 61.14C82.56 60.5133 82.9333 59.98 83.4 59.54C83.8667 59.1 84.42 58.76 85.06 58.52C85.7 58.28 86.38 58.16 87.1 58.16C87.7667 58.16 88.3733 58.28 88.92 58.52C89.48 58.7467 89.9533 59.08 90.34 59.52C90.74 59.96 91.0467 60.5067 91.26 61.16C91.4867 61.8 91.6 62.54 91.6 63.38V64.04H84.28ZM89.2 62.24C89.1867 61.5333 88.9667 60.98 88.54 60.58C88.1133 60.1667 87.52 59.96 86.76 59.96C86.04 59.96 85.4667 60.1667 85.04 60.58C84.6267 60.9933 84.3733 61.5467 84.28 62.24H89.2Z" fill="white"/>
<path d="M253.52 54.84H256.04V69H253.52V54.84ZM266.526 67.56H266.486C266.14 68.1467 265.673 68.5733 265.086 68.84C264.5 69.1067 263.866 69.24 263.186 69.24C262.44 69.24 261.773 69.1133 261.186 68.86C260.613 68.5933 260.12 68.2333 259.706 67.78C259.293 67.3267 258.98 66.7933 258.766 66.18C258.553 65.5667 258.446 64.9067 258.446 64.2C258.446 63.4933 258.56 62.8333 258.786 62.22C259.013 61.6067 259.326 61.0733 259.726 60.62C260.14 60.1667 260.633 59.8133 261.206 59.56C261.78 59.2933 262.406 59.16 263.086 59.16C263.54 59.16 263.94 59.2067 264.286 59.3C264.633 59.3933 264.94 59.5133 265.206 59.66C265.473 59.8067 265.7 59.9667 265.886 60.14C266.073 60.3 266.226 60.46 266.346 60.62H266.406V53.88H268.806V69H266.526V67.56ZM260.846 64.2C260.846 64.5733 260.906 64.9333 261.026 65.28C261.16 65.6267 261.346 65.9333 261.586 66.2C261.84 66.4667 262.14 66.68 262.486 66.84C262.833 67 263.226 67.08 263.666 67.08C264.106 67.08 264.5 67 264.846 66.84C265.193 66.68 265.486 66.4667 265.726 66.2C265.98 65.9333 266.166 65.6267 266.286 65.28C266.42 64.9333 266.486 64.5733 266.486 64.2C266.486 63.8267 266.42 63.4667 266.286 63.12C266.166 62.7733 265.98 62.4667 265.726 62.2C265.486 61.9333 265.193 61.72 264.846 61.56C264.5 61.4 264.106 61.32 263.666 61.32C263.226 61.32 262.833 61.4 262.486 61.56C262.14 61.72 261.84 61.9333 261.586 62.2C261.346 62.4667 261.16 62.7733 261.026 63.12C260.906 63.4667 260.846 63.8267 260.846 64.2ZM273.444 65.04C273.524 65.76 273.804 66.32 274.284 66.72C274.764 67.12 275.344 67.32 276.024 67.32C276.624 67.32 277.124 67.2 277.524 66.96C277.937 66.7067 278.297 66.3933 278.604 66.02L280.324 67.32C279.764 68.0133 279.137 68.5067 278.444 68.8C277.751 69.0933 277.024 69.24 276.264 69.24C275.544 69.24 274.864 69.12 274.224 68.88C273.584 68.64 273.031 68.3 272.564 67.86C272.097 67.42 271.724 66.8933 271.444 66.28C271.177 65.6533 271.044 64.96 271.044 64.2C271.044 63.44 271.177 62.7533 271.444 62.14C271.724 61.5133 272.097 60.98 272.564 60.54C273.031 60.1 273.584 59.76 274.224 59.52C274.864 59.28 275.544 59.16 276.264 59.16C276.931 59.16 277.537 59.28 278.084 59.52C278.644 59.7467 279.117 60.08 279.504 60.52C279.904 60.96 280.211 61.5067 280.424 62.16C280.651 62.8 280.764 63.54 280.764 64.38V65.04H273.444ZM278.364 63.24C278.351 62.5333 278.131 61.98 277.704 61.58C277.277 61.1667 276.684 60.96 275.924 60.96C275.204 60.96 274.631 61.1667 274.204 61.58C273.791 61.9933 273.537 62.5467 273.444 63.24H278.364ZM289.008 67.68H288.948C288.602 68.2267 288.162 68.6267 287.628 68.88C287.095 69.12 286.508 69.24 285.868 69.24C285.428 69.24 284.995 69.18 284.568 69.06C284.155 68.94 283.782 68.76 283.448 68.52C283.128 68.28 282.868 67.98 282.668 67.62C282.468 67.26 282.368 66.84 282.368 66.36C282.368 65.84 282.462 65.4 282.648 65.04C282.835 64.6667 283.082 64.36 283.388 64.12C283.708 63.8667 284.075 63.6667 284.488 63.52C284.902 63.3733 285.328 63.2667 285.768 63.2C286.222 63.12 286.675 63.0733 287.128 63.06C287.582 63.0333 288.008 63.02 288.408 63.02H289.008V62.76C289.008 62.16 288.802 61.7133 288.388 61.42C287.975 61.1133 287.448 60.96 286.808 60.96C286.302 60.96 285.828 61.0533 285.388 61.24C284.948 61.4133 284.568 61.6533 284.248 61.96L282.988 60.7C283.522 60.1533 284.142 59.76 284.848 59.52C285.568 59.28 286.308 59.16 287.068 59.16C287.748 59.16 288.322 59.24 288.788 59.4C289.255 59.5467 289.642 59.74 289.948 59.98C290.255 60.22 290.488 60.5 290.648 60.82C290.822 61.1267 290.942 61.44 291.008 61.76C291.088 62.08 291.135 62.3933 291.148 62.7C291.162 62.9933 291.168 63.2533 291.168 63.48V69H289.008V67.68ZM288.868 64.7H288.368C288.035 64.7 287.662 64.7133 287.248 64.74C286.835 64.7667 286.442 64.8333 286.068 64.94C285.708 65.0333 285.402 65.18 285.148 65.38C284.895 65.5667 284.768 65.8333 284.768 66.18C284.768 66.4067 284.815 66.6 284.908 66.76C285.015 66.9067 285.148 67.0333 285.308 67.14C285.468 67.2467 285.648 67.3267 285.848 67.38C286.048 67.42 286.248 67.44 286.448 67.44C287.275 67.44 287.882 67.2467 288.268 66.86C288.668 66.46 288.868 65.92 288.868 65.24V64.7ZM292.631 61.44V59.4H294.611V56.62H297.011V59.4H299.651V61.44H297.011V65.64C297.011 66.12 297.097 66.5 297.271 66.78C297.457 67.06 297.817 67.2 298.351 67.2C298.564 67.2 298.797 67.18 299.051 67.14C299.304 67.0867 299.504 67.0067 299.651 66.9V68.92C299.397 69.04 299.084 69.12 298.711 69.16C298.351 69.2133 298.031 69.24 297.751 69.24C297.111 69.24 296.584 69.1667 296.171 69.02C295.771 68.8867 295.451 68.68 295.211 68.4C294.984 68.1067 294.824 67.7467 294.731 67.32C294.651 66.8933 294.611 66.4 294.611 65.84V61.44H292.631ZM303.444 65.04C303.524 65.76 303.804 66.32 304.284 66.72C304.764 67.12 305.344 67.32 306.024 67.32C306.624 67.32 307.124 67.2 307.524 66.96C307.937 66.7067 308.297 66.3933 308.604 66.02L310.324 67.32C309.764 68.0133 309.137 68.5067 308.444 68.8C307.751 69.0933 307.024 69.24 306.264 69.24C305.544 69.24 304.864 69.12 304.224 68.88C303.584 68.64 303.031 68.3 302.564 67.86C302.097 67.42 301.724 66.8933 301.444 66.28C301.177 65.6533 301.044 64.96 301.044 64.2C301.044 63.44 301.177 62.7533 301.444 62.14C301.724 61.5133 302.097 60.98 302.564 60.54C303.031 60.1 303.584 59.76 304.224 59.52C304.864 59.28 305.544 59.16 306.264 59.16C306.931 59.16 307.537 59.28 308.084 59.52C308.644 59.7467 309.117 60.08 309.504 60.52C309.904 60.96 310.211 61.5067 310.424 62.16C310.651 62.8 310.764 63.54 310.764 64.38V65.04H303.444ZM308.364 63.24C308.351 62.5333 308.131 61.98 307.704 61.58C307.277 61.1667 306.684 60.96 305.924 60.96C305.204 60.96 304.631 61.1667 304.204 61.58C303.791 61.9933 303.537 62.5467 303.444 63.24H308.364Z" fill="white"/>
<path d="M462.58 53.84H467.34C468.02 53.84 468.673 53.9067 469.3 54.04C469.94 54.1733 470.5 54.4 470.98 54.72C471.46 55.0267 471.84 55.4467 472.12 55.98C472.413 56.5 472.56 57.1533 472.56 57.94C472.56 58.8333 472.407 59.5533 472.1 60.1C471.793 60.6467 471.38 61.0733 470.86 61.38C470.34 61.6733 469.733 61.8733 469.04 61.98C468.36 62.0867 467.647 62.14 466.9 62.14H465.1V68H462.58V53.84ZM466.62 59.98C466.98 59.98 467.353 59.9667 467.74 59.94C468.127 59.9133 468.48 59.8333 468.8 59.7C469.133 59.5667 469.4 59.3667 469.6 59.1C469.813 58.8333 469.92 58.46 469.92 57.98C469.92 57.54 469.827 57.1933 469.64 56.94C469.453 56.6733 469.213 56.4733 468.92 56.34C468.627 56.1933 468.3 56.1 467.94 56.06C467.58 56.02 467.233 56 466.9 56H465.1V59.98H466.62ZM474.587 58.4H476.987V59.92H477.027C477.293 59.36 477.673 58.9267 478.167 58.62C478.66 58.3133 479.227 58.16 479.867 58.16C480.013 58.16 480.153 58.1733 480.287 58.2C480.433 58.2267 480.58 58.26 480.727 58.3V60.62C480.527 60.5667 480.327 60.5267 480.127 60.5C479.94 60.46 479.753 60.44 479.567 60.44C479.007 60.44 478.553 60.5467 478.207 60.76C477.873 60.96 477.613 61.1933 477.427 61.46C477.253 61.7267 477.133 61.9933 477.067 62.26C477.013 62.5267 476.987 62.7267 476.987 62.86V68H474.587V58.4ZM481.528 63.2C481.528 62.44 481.662 61.7533 481.928 61.14C482.208 60.5133 482.582 59.98 483.048 59.54C483.515 59.1 484.068 58.76 484.708 58.52C485.348 58.28 486.028 58.16 486.748 58.16C487.468 58.16 488.148 58.28 488.788 58.52C489.428 58.76 489.982 59.1 490.448 59.54C490.915 59.98 491.282 60.5133 491.548 61.14C491.828 61.7533 491.968 62.44 491.968 63.2C491.968 63.96 491.828 64.6533 491.548 65.28C491.282 65.8933 490.915 66.42 490.448 66.86C489.982 67.3 489.428 67.64 488.788 67.88C488.148 68.12 487.468 68.24 486.748 68.24C486.028 68.24 485.348 68.12 484.708 67.88C484.068 67.64 483.515 67.3 483.048 66.86C482.582 66.42 482.208 65.8933 481.928 65.28C481.662 64.6533 481.528 63.96 481.528 63.2ZM483.928 63.2C483.928 63.5733 483.988 63.9333 484.108 64.28C484.242 64.6267 484.428 64.9333 484.668 65.2C484.922 65.4667 485.222 65.68 485.568 65.84C485.915 66 486.308 66.08 486.748 66.08C487.188 66.08 487.582 66 487.928 65.84C488.275 65.68 488.568 65.4667 488.808 65.2C489.062 64.9333 489.248 64.6267 489.368 64.28C489.502 63.9333 489.568 63.5733 489.568 63.2C489.568 62.8267 489.502 62.4667 489.368 62.12C489.248 61.7733 489.062 61.4667 488.808 61.2C488.568 60.9333 488.275 60.72 487.928 60.56C487.582 60.4 487.188 60.32 486.748 60.32C486.308 60.32 485.915 60.4 485.568 60.56C485.222 60.72 484.922 60.9333 484.668 61.2C484.428 61.4667 484.242 61.7733 484.108 62.12C483.988 62.4667 483.928 62.8267 483.928 63.2ZM493.095 60.44V58.4H495.075V55.62H497.475V58.4H500.115V60.44H497.475V64.64C497.475 65.12 497.562 65.5 497.735 65.78C497.922 66.06 498.282 66.2 498.815 66.2C499.029 66.2 499.262 66.18 499.515 66.14C499.769 66.0867 499.969 66.0067 500.115 65.9V67.92C499.862 68.04 499.549 68.12 499.175 68.16C498.815 68.2133 498.495 68.24 498.215 68.24C497.575 68.24 497.049 68.1667 496.635 68.02C496.235 67.8867 495.915 67.68 495.675 67.4C495.449 67.1067 495.289 66.7467 495.195 66.32C495.115 65.8933 495.075 65.4 495.075 64.84V60.44H493.095ZM501.509 63.2C501.509 62.44 501.642 61.7533 501.909 61.14C502.189 60.5133 502.562 59.98 503.029 59.54C503.496 59.1 504.049 58.76 504.689 58.52C505.329 58.28 506.009 58.16 506.729 58.16C507.449 58.16 508.129 58.28 508.769 58.52C509.409 58.76 509.962 59.1 510.429 59.54C510.896 59.98 511.262 60.5133 511.529 61.14C511.809 61.7533 511.949 62.44 511.949 63.2C511.949 63.96 511.809 64.6533 511.529 65.28C511.262 65.8933 510.896 66.42 510.429 66.86C509.962 67.3 509.409 67.64 508.769 67.88C508.129 68.12 507.449 68.24 506.729 68.24C506.009 68.24 505.329 68.12 504.689 67.88C504.049 67.64 503.496 67.3 503.029 66.86C502.562 66.42 502.189 65.8933 501.909 65.28C501.642 64.6533 501.509 63.96 501.509 63.2ZM503.909 63.2C503.909 63.5733 503.969 63.9333 504.089 64.28C504.222 64.6267 504.409 64.9333 504.649 65.2C504.902 65.4667 505.202 65.68 505.549 65.84C505.896 66 506.289 66.08 506.729 66.08C507.169 66.08 507.562 66 507.909 65.84C508.256 65.68 508.549 65.4667 508.789 65.2C509.042 64.9333 509.229 64.6267 509.349 64.28C509.482 63.9333 509.549 63.5733 509.549 63.2C509.549 62.8267 509.482 62.4667 509.349 62.12C509.229 61.7733 509.042 61.4667 508.789 61.2C508.549 60.9333 508.256 60.72 507.909 60.56C507.562 60.4 507.169 60.32 506.729 60.32C506.289 60.32 505.896 60.4 505.549 60.56C505.202 60.72 504.902 60.9333 504.649 61.2C504.409 61.4667 504.222 61.7733 504.089 62.12C503.969 62.4667 503.909 62.8267 503.909 63.2ZM513.076 60.44V58.4H515.056V55.62H517.456V58.4H520.096V60.44H517.456V64.64C517.456 65.12 517.543 65.5 517.716 65.78C517.903 66.06 518.263 66.2 518.796 66.2C519.009 66.2 519.243 66.18 519.496 66.14C519.749 66.0867 519.949 66.0067 520.096 65.9V67.92C519.843 68.04 519.529 68.12 519.156 68.16C518.796 68.2133 518.476 68.24 518.196 68.24C517.556 68.24 517.029 68.1667 516.616 68.02C516.216 67.8867 515.896 67.68 515.656 67.4C515.429 67.1067 515.269 66.7467 515.176 66.32C515.096 65.8933 515.056 65.4 515.056 64.84V60.44H513.076ZM521.969 58.4H524.249V59.84H524.289C524.636 59.2533 525.103 58.8267 525.689 58.56C526.276 58.2933 526.909 58.16 527.589 58.16C528.323 58.16 528.983 58.2933 529.569 58.56C530.156 58.8133 530.656 59.1667 531.069 59.62C531.483 60.0733 531.796 60.6067 532.009 61.22C532.223 61.8333 532.329 62.4933 532.329 63.2C532.329 63.9067 532.216 64.5667 531.989 65.18C531.763 65.7933 531.443 66.3267 531.029 66.78C530.629 67.2333 530.143 67.5933 529.569 67.86C528.996 68.1133 528.369 68.24 527.689 68.24C527.236 68.24 526.836 68.1933 526.489 68.1C526.143 68.0067 525.836 67.8867 525.569 67.74C525.303 67.5933 525.076 67.44 524.889 67.28C524.703 67.1067 524.549 66.94 524.429 66.78H524.369V72.56H521.969V58.4ZM529.929 63.2C529.929 62.8267 529.863 62.4667 529.729 62.12C529.609 61.7733 529.423 61.4667 529.169 61.2C528.929 60.9333 528.636 60.72 528.289 60.56C527.943 60.4 527.549 60.32 527.109 60.32C526.669 60.32 526.276 60.4 525.929 60.56C525.583 60.72 525.283 60.9333 525.029 61.2C524.789 61.4667 524.603 61.7733 524.469 62.12C524.349 62.4667 524.289 62.8267 524.289 63.2C524.289 63.5733 524.349 63.9333 524.469 64.28C524.603 64.6267 524.789 64.9333 525.029 65.2C525.283 65.4667 525.583 65.68 525.929 65.84C526.276 66 526.669 66.08 527.109 66.08C527.549 66.08 527.943 66 528.289 65.84C528.636 65.68 528.929 65.4667 529.169 65.2C529.423 64.9333 529.609 64.6267 529.729 64.28C529.863 63.9333 529.929 63.5733 529.929 63.2ZM536.487 64.04C536.567 64.76 536.847 65.32 537.327 65.72C537.807 66.12 538.387 66.32 539.067 66.32C539.667 66.32 540.167 66.2 540.567 65.96C540.98 65.7067 541.34 65.3933 541.647 65.02L543.367 66.32C542.807 67.0133 542.18 67.5067 541.487 67.8C540.794 68.0933 540.067 68.24 539.307 68.24C538.587 68.24 537.907 68.12 537.267 67.88C536.627 67.64 536.074 67.3 535.607 66.86C535.14 66.42 534.767 65.8933 534.487 65.28C534.22 64.6533 534.087 63.96 534.087 63.2C534.087 62.44 534.22 61.7533 534.487 61.14C534.767 60.5133 535.14 59.98 535.607 59.54C536.074 59.1 536.627 58.76 537.267 58.52C537.907 58.28 538.587 58.16 539.307 58.16C539.974 58.16 540.58 58.28 541.127 58.52C541.687 58.7467 542.16 59.08 542.547 59.52C542.947 59.96 543.254 60.5067 543.467 61.16C543.694 61.8 543.807 62.54 543.807 63.38V64.04H536.487ZM541.407 62.24C541.394 61.5333 541.174 60.98 540.747 60.58C540.32 60.1667 539.727 59.96 538.967 59.96C538.247 59.96 537.674 60.1667 537.247 60.58C536.834 60.9933 536.58 61.5467 536.487 62.24H541.407Z" fill="white"/>
<path d="M701.58 54.84H707.1C707.633 54.84 708.16 54.9067 708.68 55.04C709.2 55.16 709.66 55.3667 710.06 55.66C710.473 55.94 710.807 56.3067 711.06 56.76C711.313 57.2133 711.44 57.76 711.44 58.4C711.44 59.2 711.213 59.86 710.76 60.38C710.307 60.9 709.713 61.2733 708.98 61.5V61.54C709.42 61.5933 709.827 61.72 710.2 61.92C710.587 62.1067 710.913 62.3533 711.18 62.66C711.447 62.9533 711.653 63.3 711.8 63.7C711.96 64.0867 712.04 64.5067 712.04 64.96C712.04 65.7333 711.887 66.38 711.58 66.9C711.273 67.4067 710.867 67.82 710.36 68.14C709.867 68.4467 709.293 68.6667 708.64 68.8C708 68.9333 707.347 69 706.68 69H701.58V54.84ZM704.1 60.6H706.4C707.24 60.6 707.867 60.44 708.28 60.12C708.707 59.7867 708.92 59.3533 708.92 58.82C708.92 58.2067 708.7 57.7533 708.26 57.46C707.833 57.1533 707.14 57 706.18 57H704.1V60.6ZM704.1 66.84H706.42C706.74 66.84 707.08 66.82 707.44 66.78C707.813 66.74 708.153 66.6467 708.46 66.5C708.767 66.3533 709.02 66.1467 709.22 65.88C709.42 65.6 709.52 65.2267 709.52 64.76C709.52 64.0133 709.273 63.4933 708.78 63.2C708.3 62.9067 707.547 62.76 706.52 62.76H704.1V66.84ZM723.089 69H720.809V67.46H720.769C720.542 67.94 720.195 68.36 719.729 68.72C719.262 69.0667 718.629 69.24 717.829 69.24C717.189 69.24 716.642 69.14 716.189 68.94C715.749 68.7267 715.389 68.4467 715.109 68.1C714.829 67.74 714.629 67.3333 714.509 66.88C714.389 66.4267 714.329 65.9533 714.329 65.46V59.4H716.729V64.26C716.729 64.5267 716.742 64.8267 716.769 65.16C716.795 65.48 716.862 65.7867 716.969 66.08C717.089 66.36 717.262 66.6 717.489 66.8C717.729 66.9867 718.062 67.08 718.489 67.08C718.889 67.08 719.222 67.0133 719.489 66.88C719.769 66.7467 719.995 66.5667 720.169 66.34C720.355 66.1133 720.489 65.8533 720.569 65.56C720.649 65.2667 720.689 64.96 720.689 64.64V59.4H723.089V69ZM725.853 59.4H728.253V69H725.853V59.4ZM725.513 56.14C725.513 55.7533 725.653 55.42 725.933 55.14C726.226 54.8467 726.593 54.7 727.033 54.7C727.473 54.7 727.84 54.84 728.133 55.12C728.44 55.3867 728.593 55.7267 728.593 56.14C728.593 56.5533 728.44 56.9 728.133 57.18C727.84 57.4467 727.473 57.58 727.033 57.58C726.593 57.58 726.226 57.44 725.933 57.16C725.653 56.8667 725.513 56.5267 725.513 56.14ZM731.048 53.88H733.448V69H731.048V53.88ZM743.804 67.56H743.764C743.417 68.1467 742.95 68.5733 742.364 68.84C741.777 69.1067 741.144 69.24 740.464 69.24C739.717 69.24 739.05 69.1133 738.464 68.86C737.89 68.5933 737.397 68.2333 736.984 67.78C736.57 67.3267 736.257 66.7933 736.044 66.18C735.83 65.5667 735.724 64.9067 735.724 64.2C735.724 63.4933 735.837 62.8333 736.064 62.22C736.29 61.6067 736.604 61.0733 737.004 60.62C737.417 60.1667 737.91 59.8133 738.484 59.56C739.057 59.2933 739.684 59.16 740.364 59.16C740.817 59.16 741.217 59.2067 741.564 59.3C741.91 59.3933 742.217 59.5133 742.484 59.66C742.75 59.8067 742.977 59.9667 743.164 60.14C743.35 60.3 743.504 60.46 743.624 60.62H743.684V53.88H746.084V69H743.804V67.56ZM738.124 64.2C738.124 64.5733 738.184 64.9333 738.304 65.28C738.437 65.6267 738.624 65.9333 738.864 66.2C739.117 66.4667 739.417 66.68 739.764 66.84C740.11 67 740.504 67.08 740.944 67.08C741.384 67.08 741.777 67 742.124 66.84C742.47 66.68 742.764 66.4667 743.004 66.2C743.257 65.9333 743.444 65.6267 743.564 65.28C743.697 64.9333 743.764 64.5733 743.764 64.2C743.764 63.8267 743.697 63.4667 743.564 63.12C743.444 62.7733 743.257 62.4667 743.004 62.2C742.764 61.9333 742.47 61.72 742.124 61.56C741.777 61.4 741.384 61.32 740.944 61.32C740.504 61.32 740.11 61.4 739.764 61.56C739.417 61.72 739.117 61.9333 738.864 62.2C738.624 62.4667 738.437 62.7733 738.304 63.12C738.184 63.4667 738.124 63.8267 738.124 64.2Z" fill="white"/>
<path d="M913.16 54.84H915.34L921.44 69H918.56L917.24 65.76H911.1L909.82 69H907L913.16 54.84ZM916.36 63.6L914.18 57.84L911.96 63.6H916.36ZM922.794 59.4H925.074V60.94H925.114C925.34 60.46 925.687 60.0467 926.154 59.7C926.62 59.34 927.254 59.16 928.054 59.16C928.694 59.16 929.234 59.2667 929.674 59.48C930.127 59.6933 930.494 59.9733 930.774 60.32C931.054 60.6667 931.254 61.0667 931.374 61.52C931.494 61.9733 931.554 62.4467 931.554 62.94V69H929.154V64.14C929.154 63.8733 929.14 63.58 929.114 63.26C929.087 62.9267 929.014 62.62 928.894 62.34C928.787 62.0467 928.614 61.8067 928.374 61.62C928.134 61.42 927.807 61.32 927.394 61.32C926.994 61.32 926.654 61.3867 926.374 61.52C926.107 61.6533 925.88 61.8333 925.694 62.06C925.52 62.2867 925.394 62.5467 925.314 62.84C925.234 63.1333 925.194 63.44 925.194 63.76V69H922.794V59.4ZM940.278 67.68H940.218C939.871 68.2267 939.431 68.6267 938.898 68.88C938.365 69.12 937.778 69.24 937.138 69.24C936.698 69.24 936.265 69.18 935.838 69.06C935.425 68.94 935.051 68.76 934.718 68.52C934.398 68.28 934.138 67.98 933.938 67.62C933.738 67.26 933.638 66.84 933.638 66.36C933.638 65.84 933.731 65.4 933.918 65.04C934.105 64.6667 934.351 64.36 934.658 64.12C934.978 63.8667 935.345 63.6667 935.758 63.52C936.171 63.3733 936.598 63.2667 937.038 63.2C937.491 63.12 937.945 63.0733 938.398 63.06C938.851 63.0333 939.278 63.02 939.678 63.02H940.278V62.76C940.278 62.16 940.071 61.7133 939.658 61.42C939.245 61.1133 938.718 60.96 938.078 60.96C937.571 60.96 937.098 61.0533 936.658 61.24C936.218 61.4133 935.838 61.6533 935.518 61.96L934.258 60.7C934.791 60.1533 935.411 59.76 936.118 59.52C936.838 59.28 937.578 59.16 938.338 59.16C939.018 59.16 939.591 59.24 940.058 59.4C940.525 59.5467 940.911 59.74 941.218 59.98C941.525 60.22 941.758 60.5 941.918 60.82C942.091 61.1267 942.211 61.44 942.278 61.76C942.358 62.08 942.405 62.3933 942.418 62.7C942.431 62.9933 942.438 63.2533 942.438 63.48V69H940.278V67.68ZM940.138 64.7H939.638C939.305 64.7 938.931 64.7133 938.518 64.74C938.105 64.7667 937.711 64.8333 937.338 64.94C936.978 65.0333 936.671 65.18 936.418 65.38C936.165 65.5667 936.038 65.8333 936.038 66.18C936.038 66.4067 936.085 66.6 936.178 66.76C936.285 66.9067 936.418 67.0333 936.578 67.14C936.738 67.2467 936.918 67.3267 937.118 67.38C937.318 67.42 937.518 67.44 937.718 67.44C938.545 67.44 939.151 67.2467 939.538 66.86C939.938 66.46 940.138 65.92 940.138 65.24V64.7ZM945.06 53.88H947.46V69H945.06V53.88ZM948.915 59.4H951.555L954.235 66.06H954.275L956.675 59.4H959.175L954.635 71.06C954.462 71.5133 954.269 71.9067 954.055 72.24C953.855 72.5867 953.615 72.8733 953.335 73.1C953.055 73.34 952.722 73.5133 952.335 73.62C951.962 73.74 951.509 73.8 950.975 73.8C950.349 73.8 949.735 73.72 949.135 73.56L949.435 71.4C949.622 71.4667 949.815 71.52 950.015 71.56C950.229 71.6133 950.442 71.64 950.655 71.64C950.949 71.64 951.195 71.6133 951.395 71.56C951.595 71.5067 951.762 71.42 951.895 71.3C952.042 71.1933 952.162 71.0467 952.255 70.86C952.349 70.6867 952.449 70.4733 952.555 70.22L953.015 69.08L948.915 59.4ZM959.907 66.78L965.047 61.36V61.32H960.147V59.4H967.947V61.58L962.747 67.08H968.187V69H959.907V66.78ZM972.155 65.04C972.235 65.76 972.515 66.32 972.995 66.72C973.475 67.12 974.055 67.32 974.735 67.32C975.335 67.32 975.835 67.2 976.235 66.96C976.648 66.7067 977.008 66.3933 977.315 66.02L979.035 67.32C978.475 68.0133 977.848 68.5067 977.155 68.8C976.462 69.0933 975.735 69.24 974.975 69.24C974.255 69.24 973.575 69.12 972.935 68.88C972.295 68.64 971.742 68.3 971.275 67.86C970.808 67.42 970.435 66.8933 970.155 66.28C969.888 65.6533 969.755 64.96 969.755 64.2C969.755 63.44 969.888 62.7533 970.155 62.14C970.435 61.5133 970.808 60.98 971.275 60.54C971.742 60.1 972.295 59.76 972.935 59.52C973.575 59.28 974.255 59.16 974.975 59.16C975.642 59.16 976.248 59.28 976.795 59.52C977.355 59.7467 977.828 60.08 978.215 60.52C978.615 60.96 978.922 61.5067 979.135 62.16C979.362 62.8 979.475 63.54 979.475 64.38V65.04H972.155ZM977.075 63.24C977.062 62.5333 976.842 61.98 976.415 61.58C975.988 61.1667 975.395 60.96 974.635 60.96C973.915 60.96 973.342 61.1667 972.915 61.58C972.502 61.9933 972.248 62.5467 972.155 63.24H977.075Z" fill="white"/>
<path d="M147 56.5C146.172 56.5 145.5 57.1716 145.5 58C145.5 58.8284 146.172 59.5 147 59.5V56.5ZM197.061 59.0607C197.646 58.4749 197.646 57.5251 197.061 56.9393L187.515 47.3934C186.929 46.8076 185.979 46.8076 185.393 47.3934C184.808 47.9792 184.808 48.9289 185.393 49.5147L193.879 58L185.393 66.4853C184.808 67.0711 184.808 68.0208 185.393 68.6066C185.979 69.1924 186.929 69.1924 187.515 68.6066L197.061 59.0607ZM147 59.5L196 59.5V56.5L147 56.5V59.5Z" fill="black"/>
<path d="M367 56.5C366.172 56.5 365.5 57.1716 365.5 58C365.5 58.8284 366.172 59.5 367 59.5V56.5ZM418.061 59.0607C418.646 58.4749 418.646 57.5251 418.061 56.9393L408.515 47.3934C407.929 46.8076 406.979 46.8076 406.393 47.3934C405.808 47.9792 405.808 48.9289 406.393 49.5147L414.879 58L406.393 66.4853C405.808 67.0711 405.808 68.0208 406.393 68.6066C406.979 69.1924 407.929 69.1924 408.515 68.6066L418.061 59.0607ZM367 59.5L417 59.5V56.5L367 56.5V59.5Z" fill="black"/>
<path d="M588 56.5C587.172 56.5 586.5 57.1716 586.5 58C586.5 58.8284 587.172 59.5 588 59.5V56.5ZM638.061 59.0607C638.646 58.4749 638.646 57.5251 638.061 56.9393L628.515 47.3934C627.929 46.8076 626.979 46.8076 626.393 47.3934C625.808 47.9792 625.808 48.9289 626.393 49.5147L634.879 58L626.393 66.4853C625.808 67.0711 625.808 68.0208 626.393 68.6066C626.979 69.1924 627.929 69.1924 628.515 68.6066L638.061 59.0607ZM588 59.5L637 59.5V56.5L588 56.5V59.5Z" fill="black"/>
<path d="M808 56.5C807.172 56.5 806.5 57.1716 806.5 58C806.5 58.8284 807.172 59.5 808 59.5L808 56.5ZM859.061 59.0607C859.646 58.4749 859.646 57.5251 859.061 56.9393L849.515 47.3934C848.929 46.8076 847.979 46.8076 847.393 47.3934C846.808 47.9792 846.808 48.9289 847.393 49.5147L855.879 58L847.393 66.4853C846.808 67.0711 846.808 68.0208 847.393 68.6066C847.979 69.1924 848.929 69.1924 849.515 68.6066L859.061 59.0607ZM808 59.5L858 59.5L858 56.5L808 56.5L808 59.5Z" fill="black"/>
<path d="M944 150.113L941.113 153L944 155.887L946.887 153L944 150.113ZM944 242L944 242.5L944.5 242.5L944.5 242L944 242ZM62 242L61.5 242L61.5 242.5L62 242.5L62 242ZM62.3536 152.646C62.1583 152.451 61.8417 152.451 61.6464 152.646L58.4645 155.828C58.2692 156.024 58.2692 156.34 58.4645 156.536C58.6597 156.731 58.9763 156.731 59.1716 156.536L62 153.707L64.8284 156.536C65.0237 156.731 65.3403 156.731 65.5355 156.536C65.7308 156.34 65.7308 156.024 65.5355 155.828L62.3536 152.646ZM943.5 153L943.5 156.179L944.5 156.179L944.5 153L943.5 153ZM943.5 162.536L943.5 168.893L944.5 168.893L944.5 162.536L943.5 162.536ZM943.5 175.25L943.5 181.607L944.5 181.607L944.5 175.25L943.5 175.25ZM943.5 187.964L943.5 194.321L944.5 194.321L944.5 187.964L943.5 187.964ZM943.5 200.679L943.5 207.036L944.5 207.036L944.5 200.679L943.5 200.679ZM943.5 213.393L943.5 219.75L944.5 219.75L944.5 213.393L943.5 213.393ZM943.5 226.107L943.5 232.464L944.5 232.464L944.5 226.107L943.5 226.107ZM943.5 238.821L943.5 242L944.5 242L944.5 238.821L943.5 238.821ZM944 241.5L941.02 241.5L941.02 242.5L944 242.5L944 241.5ZM935.061 241.5L929.101 241.5L929.101 242.5L935.061 242.5L935.061 241.5ZM923.142 241.5L917.182 241.5L917.182 242.5L923.142 242.5L923.142 241.5ZM911.223 241.5L905.264 241.5L905.264 242.5L911.223 242.5L911.223 241.5ZM899.304 241.5L893.345 241.5L893.345 242.5L899.304 242.5L899.304 241.5ZM887.385 241.5L881.426 241.5L881.426 242.5L887.385 242.5L887.385 241.5ZM875.466 241.5L869.507 241.5L869.507 242.5L875.466 242.5L875.466 241.5ZM863.547 241.5L857.588 241.5L857.588 242.5L863.547 242.5L863.547 241.5ZM851.628 241.5L845.669 241.5L845.669 242.5L851.628 242.5L851.628 241.5ZM839.709 241.5L833.75 241.5L833.75 242.5L839.709 242.5L839.709 241.5ZM827.791 241.5L821.831 241.5L821.831 242.5L827.791 242.5L827.791 241.5ZM815.872 241.5L809.912 241.5L809.912 242.5L815.872 242.5L815.872 241.5ZM803.953 241.5L797.993 241.5L797.993 242.5L803.953 242.5L803.953 241.5ZM792.034 241.5L786.074 241.5L786.074 242.5L792.034 242.5L792.034 241.5ZM780.115 241.5L774.155 241.5L774.155 242.5L780.115 242.5L780.115 241.5ZM768.196 241.5L762.237 241.5L762.237 242.5L768.196 242.5L768.196 241.5ZM756.277 241.5L750.318 241.5L750.318 242.5L756.277 242.5L756.277 241.5ZM744.358 241.5L738.399 241.5L738.399 242.5L744.358 242.5L744.358 241.5ZM732.439 241.5L726.48 241.5L726.48 242.5L732.439 242.5L732.439 241.5ZM720.52 241.5L714.561 241.5L714.561 242.5L720.52 242.5L720.52 241.5ZM708.601 241.5L702.642 241.5L702.642 242.5L708.601 242.5L708.601 241.5ZM696.682 241.5L690.723 241.5L690.723 242.5L696.682 242.5L696.682 241.5ZM684.764 241.5L678.804 241.5L678.804 242.5L684.764 242.5L684.764 241.5ZM672.845 241.5L666.885 241.5L666.885 242.5L672.845 242.5L672.845 241.5ZM660.926 241.5L654.966 241.5L654.966 242.5L660.926 242.5L660.926 241.5ZM649.007 241.5L643.047 241.5L643.047 242.5L649.007 242.5L649.007 241.5ZM637.088 241.5L631.128 241.5L631.128 242.5L637.088 242.5L637.088 241.5ZM625.169 241.5L619.209 241.5L619.209 242.5L625.169 242.5L625.169 241.5ZM613.25 241.5L607.29 241.5L607.29 242.5L613.25 242.5L613.25 241.5ZM601.331 241.5L595.371 241.5L595.371 242.5L601.331 242.5L601.331 241.5ZM589.412 241.5L583.453 241.5L583.453 242.5L589.412 242.5L589.412 241.5ZM577.493 241.5L571.534 241.5L571.534 242.5L577.493 242.5L577.493 241.5ZM565.574 241.5L559.615 241.5L559.615 242.5L565.574 242.5L565.574 241.5ZM553.655 241.5L547.696 241.5L547.696 242.5L553.655 242.5L553.655 241.5ZM541.736 241.5L535.777 241.5L535.777 242.5L541.736 242.5L541.736 241.5ZM529.817 241.5L523.858 241.5L523.858 242.5L529.817 242.5L529.817 241.5ZM517.898 241.5L511.939 241.5L511.939 242.5L517.898 242.5L517.898 241.5ZM505.979 241.5L500.02 241.5L500.02 242.5L505.979 242.5L505.979 241.5ZM494.06 241.5L488.101 241.5L488.101 242.5L494.06 242.5L494.06 241.5ZM482.141 241.5L476.182 241.5L476.182 242.5L482.141 242.5L482.141 241.5ZM470.223 241.5L464.263 241.5L464.263 242.5L470.223 242.5L470.223 241.5ZM458.304 241.5L452.344 241.5L452.344 242.5L458.304 242.5L458.304 241.5ZM446.385 241.5L440.425 241.5L440.425 242.5L446.385 242.5L446.385 241.5ZM434.466 241.5L428.506 241.5L428.506 242.5L434.466 242.5L434.466 241.5ZM422.547 241.5L416.587 241.5L416.587 242.5L422.547 242.5L422.547 241.5ZM410.628 241.5L404.668 241.5L404.668 242.5L410.628 242.5L410.628 241.5ZM398.709 241.5L392.749 241.5L392.749 242.5L398.709 242.5L398.709 241.5ZM386.79 241.5L380.831 241.5L380.831 242.5L386.79 242.5L386.79 241.5ZM374.871 241.5L368.912 241.5L368.912 242.5L374.871 242.5L374.871 241.5ZM362.952 241.5L356.993 241.5L356.993 242.5L362.952 242.5L362.952 241.5ZM351.033 241.5L345.074 241.5L345.074 242.5L351.033 242.5L351.033 241.5ZM339.114 241.5L333.155 241.5L333.155 242.5L339.114 242.5L339.114 241.5ZM327.195 241.5L321.236 241.5L321.236 242.5L327.195 242.5L327.195 241.5ZM315.276 241.5L309.317 241.5L309.317 242.5L315.276 242.5L315.276 241.5ZM303.357 241.5L297.398 241.5L297.398 242.5L303.357 242.5L303.357 241.5ZM291.438 241.5L285.479 241.5L285.479 242.5L291.438 242.5L291.438 241.5ZM279.519 241.5L273.56 241.5L273.56 242.5L279.519 242.5L279.519 241.5ZM267.601 241.5L261.641 241.5L261.641 242.5L267.601 242.5L267.601 241.5ZM255.682 241.5L249.722 241.5L249.722 242.5L255.682 242.5L255.682 241.5ZM243.763 241.5L237.803 241.5L237.803 242.5L243.763 242.5L243.763 241.5ZM231.844 241.5L225.884 241.5L225.884 242.5L231.844 242.5L231.844 241.5ZM219.925 241.5L213.965 241.5L213.965 242.5L219.925 242.5L219.925 241.5ZM208.006 241.5L202.046 241.5L202.046 242.5L208.006 242.5L208.006 241.5ZM196.087 241.5L190.127 241.5L190.127 242.5L196.087 242.5L196.087 241.5ZM184.168 241.5L178.208 241.5L178.208 242.5L184.168 242.5L184.168 241.5ZM172.249 241.5L166.289 241.5L166.289 242.5L172.249 242.5L172.249 241.5ZM160.33 241.5L154.371 241.5L154.371 242.5L160.33 242.5L160.33 241.5ZM148.411 241.5L142.452 241.5L142.452 242.5L148.411 242.5L148.411 241.5ZM136.492 241.5L130.533 241.5L130.533 242.5L136.492 242.5L136.492 241.5ZM124.573 241.5L118.614 241.5L118.614 242.5L124.573 242.5L124.573 241.5ZM112.654 241.5L106.695 241.5L106.695 242.5L112.654 242.5L112.654 241.5ZM100.735 241.5L94.7758 241.5L94.7758 242.5L100.735 242.5L100.735 241.5ZM88.8164 241.5L82.8569 241.5L82.8569 242.5L88.8164 242.5L88.8164 241.5ZM76.8974 241.5L70.9379 241.5L70.9379 242.5L76.8974 242.5L76.8974 241.5ZM64.9785 241.5L62 241.5L62 242.5L64.9785 242.5L64.9785 241.5ZM62.5 242L62.5 238.821L61.5 238.821L61.5 242L62.5 242ZM62.5 232.464L62.5 226.107L61.5 226.107L61.5 232.464L62.5 232.464ZM62.5 219.75L62.5 213.393L61.5 213.393L61.5 219.75L62.5 219.75ZM62.5 207.036L62.5 200.679L61.5 200.679L61.5 207.036L62.5 207.036ZM62.5 194.321L62.5 187.964L61.5 187.964L61.5 194.321L62.5 194.321ZM62.5 181.607L62.5 175.25L61.5 175.25L61.5 181.607L62.5 181.607ZM62.5 168.893L62.5 162.536L61.5 162.536L61.5 168.893L62.5 168.893ZM62.5 156.179L62.5 153L61.5 153L61.5 156.179L62.5 156.179ZM944 147.226L938.226 153L944 158.774L949.774 153L944 147.226ZM944 242L944 243L945 243L945 242L944 242ZM62 242L61 242L61 243L62 243L62 242ZM62.7071 152.293C62.3166 151.902 61.6834 151.902 61.2929 152.293L54.9289 158.657C54.5384 159.047 54.5384 159.681 54.9289 160.071C55.3195 160.462 55.9526 160.462 56.3431 160.071L62 154.414L67.6569 160.071C68.0474 160.462 68.6805 160.462 69.0711 160.071C69.4616 159.681 69.4616 159.047 69.0711 158.657L62.7071 152.293ZM943 153L943 156.179L945 156.179L945 153L943 153ZM943 162.536L943 168.893L945 168.893L945 162.536L943 162.536ZM943 175.25L943 181.607L945 181.607L945 175.25L943 175.25ZM943 187.964L943 194.321L945 194.321L945 187.964L943 187.964ZM943 200.679L943 207.036L945 207.036L945 200.679L943 200.679ZM943 213.393L943 219.75L945 219.75L945 213.393L943 213.393ZM943 226.107L943 232.464L945 232.464L945 226.107L943 226.107ZM943 238.821L943 242L945 242L945 238.821L943 238.821ZM944 241L941.02 241L941.02 243L944 243L944 241ZM935.061 241L929.101 241L929.101 243L935.061 243L935.061 241ZM923.142 241L917.182 241L917.182 243L923.142 243L923.142 241ZM911.223 241L905.264 241L905.264 243L911.223 243L911.223 241ZM899.304 241L893.345 241L893.345 243L899.304 243L899.304 241ZM887.385 241L881.426 241L881.426 243L887.385 243L887.385 241ZM875.466 241L869.507 241L869.507 243L875.466 243L875.466 241ZM863.547 241L857.588 241L857.588 243L863.547 243L863.547 241ZM851.628 241L845.669 241L845.669 243L851.628 243L851.628 241ZM839.709 241L833.75 241L833.75 243L839.709 243L839.709 241ZM827.791 241L821.831 241L821.831 243L827.791 243L827.791 241ZM815.872 241L809.912 241L809.912 243L815.872 243L815.872 241ZM803.953 241L797.993 241L797.993 243L803.953 243L803.953 241ZM792.034 241L786.074 241L786.074 243L792.034 243L792.034 241ZM780.115 241L774.155 241L774.155 243L780.115 243L780.115 241ZM768.196 241L762.237 241L762.237 243L768.196 243L768.196 241ZM756.277 241L750.318 241L750.318 243L756.277 243L756.277 241ZM744.358 241L738.399 241L738.399 243L744.358 243L744.358 241ZM732.439 241L726.48 241L726.48 243L732.439 243L732.439 241ZM720.52 241L714.561 241L714.561 243L720.52 243L720.52 241ZM708.601 241L702.642 241L702.642 243L708.601 243L708.601 241ZM696.682 241L690.723 241L690.723 243L696.682 243L696.682 241ZM684.764 241L678.804 241L678.804 243L684.764 243L684.764 241ZM672.845 241L666.885 241L666.885 243L672.845 243L672.845 241ZM660.926 241L654.966 241L654.966 243L660.926 243L660.926 241ZM649.007 241L643.047 241L643.047 243L649.007 243L649.007 241ZM637.088 241L631.128 241L631.128 243L637.088 243L637.088 241ZM625.169 241L619.209 241L619.209 243L625.169 243L625.169 241ZM613.25 241L607.29 241L607.29 243L613.25 243L613.25 241ZM601.331 241L595.371 241L595.371 243L601.331 243L601.331 241ZM589.412 241L583.453 241L583.453 243L589.412 243L589.412 241ZM577.493 241L571.534 241L571.534 243L577.493 243L577.493 241ZM565.574 241L559.615 241L559.615 243L565.574 243L565.574 241ZM553.655 241L547.696 241L547.696 243L553.655 243L553.655 241ZM541.736 241L535.777 241L535.777 243L541.736 243L541.736 241ZM529.817 241L523.858 241L523.858 243L529.817 243L529.817 241ZM517.898 241L511.939 241L511.939 243L517.898 243L517.898 241ZM505.979 241L500.02 241L500.02 243L505.979 243L505.979 241ZM494.06 241L488.101 241L488.101 243L494.06 243L494.06 241ZM482.141 241L476.182 241L476.182 243L482.141 243L482.141 241ZM470.223 241L464.263 241L464.263 243L470.223 243L470.223 241ZM458.304 241L452.344 241L452.344 243L458.304 243L458.304 241ZM446.385 241L440.425 241L440.425 243L446.385 243L446.385 241ZM434.466 241L428.506 241L428.506 243L434.466 243L434.466 241ZM422.547 241L416.587 241L416.587 243L422.547 243L422.547 241ZM410.628 241L404.668 241L404.668 243L410.628 243L410.628 241ZM398.709 241L392.749 241L392.749 243L398.709 243L398.709 241ZM386.79 241L380.831 241L380.831 243L386.79 243L386.79 241ZM374.871 241L368.912 241L368.912 243L374.871 243L374.871 241ZM362.952 241L356.993 241L356.993 243L362.952 243L362.952 241ZM351.033 241L345.074 241L345.074 243L351.033 243L351.033 241ZM339.114 241L333.155 241L333.155 243L339.114 243L339.114 241ZM327.195 241L321.236 241L321.236 243L327.195 243L327.195 241ZM315.276 241L309.317 241L309.317 243L315.276 243L315.276 241ZM303.357 241L297.398 241L297.398 243L303.357 243L303.357 241ZM291.438 241L285.479 241L285.479 243L291.438 243L291.438 241ZM279.519 241L273.56 241L273.56 243L279.519 243L279.519 241ZM267.601 241L261.641 241L261.641 243L267.601 243L267.601 241ZM255.682 241L249.722 241L249.722 243L255.682 243L255.682 241ZM243.763 241L237.803 241L237.803 243L243.763 243L243.763 241ZM231.844 241L225.884 241L225.884 243L231.844 243L231.844 241ZM219.925 241L213.965 241L213.965 243L219.925 243L219.925 241ZM208.006 241L202.046 241L202.046 243L208.006 243L208.006 241ZM196.087 241L190.127 241L190.127 243L196.087 243L196.087 241ZM184.168 241L178.208 241L178.208 243L184.168 243L184.168 241ZM172.249 241L166.289 241L166.289 243L172.249 243L172.249 241ZM160.33 241L154.371 241L154.371 243L160.33 243L160.33 241ZM148.411 241L142.452 241L142.452 243L148.411 243L148.411 241ZM136.492 241L130.533 241L130.533 243L136.492 243L136.492 241ZM124.573 241L118.614 241L118.614 243L124.573 243L124.573 241ZM112.654 241L106.695 241L106.695 243L112.654 243L112.654 241ZM100.735 241L94.7758 241L94.7758 243L100.735 243L100.735 241ZM88.8164 241L82.8569 241L82.8569 243L88.8164 243L88.8164 241ZM76.8974 241L70.9379 241L70.9379 243L76.8974 243L76.8974 241ZM64.9785 241L62 241L62 243L64.9785 243L64.9785 241ZM63 242L63 238.821L61 238.821L61 242L63 242ZM63 232.464L63 226.107L61 226.107L61 232.464L63 232.464ZM63 219.75L63 213.393L61 213.393L61 219.75L63 219.75ZM63 207.036L63 200.679L61 200.679L61 207.036L63 207.036ZM63 194.321L63 187.964L61 187.964L61 194.321L63 194.321ZM63 181.607L63 175.25L61 175.25L61 181.607L63 181.607ZM63 168.893L63 162.536L61 162.536L61 168.893L63 168.893ZM63 156.179L63 153L61 153L61 156.179L63 156.179Z" fill="black"/>
<path d="M282 196L280.5 196L280.5 197.5L282 197.5L282 196ZM283.061 148.939C282.475 148.354 281.525 148.354 280.939 148.939L271.393 158.485C270.808 159.071 270.808 160.021 271.393 160.607C271.979 161.192 272.929 161.192 273.515 160.607L282 152.121L290.485 160.607C291.071 161.192 292.021 161.192 292.607 160.607C293.192 160.021 293.192 159.071 292.607 158.485L283.061 148.939ZM944 194.5L282 194.5L282 197.5L944 197.5L944 194.5ZM283.5 196L283.5 150L280.5 150L280.5 196L283.5 196Z" fill="black"/>
<path d="M503 196L501.5 196L501.5 197.5L503 197.5L503 196ZM504.061 148.939C503.475 148.354 502.525 148.354 501.939 148.939L492.393 158.485C491.808 159.071 491.808 160.021 492.393 160.607C492.979 161.192 493.929 161.192 494.515 160.607L503 152.121L511.485 160.607C512.071 161.192 513.021 161.192 513.607 160.607C514.192 160.021 514.192 159.071 513.607 158.485L504.061 148.939ZM866 194.5L503 194.5L503 197.5L866 197.5L866 194.5ZM504.5 196L504.5 150L501.5 150L501.5 196L504.5 196Z" fill="black"/>
<path d="M723 196L721.5 196L721.5 197.5L723 197.5L723 196ZM724.061 148.939C723.475 148.354 722.525 148.354 721.939 148.939L712.393 158.485C711.808 159.071 711.808 160.021 712.393 160.607C712.979 161.192 713.929 161.192 714.515 160.607L723 152.121L731.485 160.607C732.071 161.192 733.021 161.192 733.607 160.607C734.192 160.021 734.192 159.071 733.607 158.485L724.061 148.939ZM945 194.5L723 194.5L723 197.5L945 197.5L945 194.5ZM724.5 196L724.5 150L721.5 150L721.5 196L724.5 196Z" fill="black"/>
</svg>
