<?xml version="1.0" encoding="UTF-8"?>
<svg width="40px" height="24px" viewBox="0 0 40 24" version="1.1" xmlns="http://www.w3.org/2000/svg" xmlns:xlink="http://www.w3.org/1999/xlink">
    <title>left-arrow</title>
    <g id="Page-1" stroke="none" stroke-width="1" fill="none" fill-rule="evenodd">
        <g id="Artboard" transform="translate(0.000000, -4.000000)" fill="#000000" fill-rule="nonzero">
            <g id="left-arrow" transform="translate(20.000000, 16.250000) rotate(-180.000000) translate(-20.000000, -16.250000) translate(-0.000000, 4.750000)">
                <path d="M27.770625,0.3138625 L27.13925,0.9451125 C26.720875,1.3635125 26.720875,2.0419 27.13925,2.4603875 L34.63275,9.91075 L1.07143,9.91075 C0.4797325,9.91075 2.08166817e-15,10.3905 2.08166817e-15,10.982125 L2.08166817e-15,11.875 C2.08166817e-15,12.46675 0.4797325,12.9465 1.07143,12.9465 L34.63275,12.9465 L27.13925,20.396875 C26.720875,20.81525 26.720875,21.493625 27.13925,21.912125 L27.770625,22.543375 C28.189,22.96175 28.867375,22.96175 29.28575,22.543375 L39.68625,12.18625 C40.104625,11.76775 40.104625,11.089375 39.68625,10.670875 L29.28575,0.3138625 C28.867375,-0.104625 28.189,-0.104625 27.770625,0.3138625 L27.770625,0.3138625 Z" id="Path"></path>
            </g>
        </g>
    </g>
</svg>