<svg width="127" height="13" viewBox="0 0 127 13" fill="none" xmlns="http://www.w3.org/2000/svg">
<path d="M0.248 0.672H3.944C4.59467 0.672 5.18133 0.730666 5.704 0.848C6.22667 0.965333 6.67467 1.15733 7.048 1.424C7.42133 1.69067 7.70933 2.032 7.912 2.448C8.11467 2.864 8.216 3.36533 8.216 3.952C8.216 4.58133 8.09867 5.10933 7.864 5.536C7.62933 5.96267 7.30933 6.30933 6.904 6.576C6.50933 6.832 6.04533 7.01867 5.512 7.136C4.97867 7.25333 4.41333 7.312 3.816 7.312H2.264V12H0.248V0.672ZM3.672 5.616C4.00267 5.616 4.31733 5.59467 4.616 5.552C4.91467 5.49867 5.18133 5.41333 5.416 5.296C5.65067 5.168 5.83733 4.99733 5.976 4.784C6.11467 4.57067 6.184 4.29333 6.184 3.952C6.184 3.62133 6.11467 3.35467 5.976 3.152C5.83733 2.93867 5.65067 2.77333 5.416 2.656C5.192 2.53867 4.93067 2.464 4.632 2.432C4.344 2.38933 4.04533 2.368 3.736 2.368H2.264V5.616H3.672ZM10.0136 0.672H13.9496C14.483 0.672 15.0003 0.730666 15.5016 0.848C16.003 0.954666 16.4456 1.136 16.8296 1.392C17.2243 1.648 17.539 1.984 17.7736 2.4C18.0083 2.816 18.1256 3.32267 18.1256 3.92C18.1256 4.74133 17.891 5.41333 17.4216 5.936C16.963 6.448 16.3336 6.79467 15.5336 6.976L18.5576 12H16.1256L13.5016 7.2H12.0296V12H10.0136V0.672ZM13.6776 5.552C13.9656 5.552 14.2536 5.53067 14.5416 5.488C14.8296 5.44533 15.0856 5.36533 15.3096 5.248C15.5443 5.13067 15.7363 4.96533 15.8856 4.752C16.035 4.528 16.1096 4.24533 16.1096 3.904C16.1096 3.59467 16.0403 3.344 15.9016 3.152C15.763 2.94933 15.587 2.78933 15.3736 2.672C15.1603 2.55467 14.915 2.47467 14.6376 2.432C14.371 2.38933 14.1096 2.368 13.8536 2.368H12.0296V5.552H13.6776ZM19.5321 6.304C19.5321 5.39733 19.6815 4.58133 19.9801 3.856C20.2895 3.12 20.7108 2.496 21.2441 1.984C21.7881 1.472 22.4281 1.07733 23.1641 0.799999C23.9108 0.522666 24.7215 0.384 25.5961 0.384C26.4815 0.384 27.2975 0.522666 28.0441 0.799999C28.7908 1.07733 29.4361 1.472 29.9801 1.984C30.5241 2.496 30.9455 3.12 31.2441 3.856C31.5535 4.58133 31.7081 5.39733 31.7081 6.304C31.7081 7.18933 31.5535 8 31.2441 8.736C30.9455 9.46133 30.5241 10.0907 29.9801 10.624C29.4361 11.1467 28.7908 11.5573 28.0441 11.856C27.2975 12.144 26.4815 12.288 25.5961 12.288C24.7215 12.288 23.9108 12.144 23.1641 11.856C22.4281 11.5573 21.7881 11.1467 21.2441 10.624C20.7108 10.0907 20.2895 9.46133 19.9801 8.736C19.6815 8 19.5321 7.18933 19.5321 6.304ZM21.7241 6.304C21.7241 6.912 21.8148 7.472 21.9961 7.984C22.1881 8.48533 22.4548 8.92267 22.7961 9.296C23.1481 9.66933 23.5588 9.96267 24.0281 10.176C24.5081 10.3787 25.0361 10.48 25.6121 10.48C26.1881 10.48 26.7161 10.3787 27.1961 10.176C27.6761 9.96267 28.0868 9.66933 28.4281 9.296C28.7801 8.92267 29.0468 8.48533 29.2281 7.984C29.4201 7.472 29.5161 6.912 29.5161 6.304C29.5161 5.71733 29.4201 5.17333 29.2281 4.672C29.0468 4.17067 28.7855 3.73333 28.4441 3.36C28.1028 2.98667 27.6921 2.69333 27.2121 2.48C26.7321 2.26667 26.1988 2.16 25.6121 2.16C25.0255 2.16 24.4921 2.26667 24.0121 2.48C23.5428 2.69333 23.1375 2.98667 22.7961 3.36C22.4548 3.73333 22.1881 4.17067 21.9961 4.672C21.8148 5.17333 21.7241 5.71733 21.7241 6.304ZM33.6543 0.672H35.6703V12H33.6543V0.672ZM38.1699 0.672H45.6739V2.432H40.1859V5.312H45.3859V7.008H40.1859V10.208H45.9619V12H38.1699V0.672ZM50.2235 2.432H46.7515V0.672H55.7115V2.432H52.2395V12H50.2235V2.432ZM60.0373 2.432H56.5653V0.672H65.5253V2.432H62.0533V12H60.0373V2.432ZM66.619 4.32H68.539V12H66.619V4.32ZM66.347 1.712C66.347 1.40267 66.459 1.136 66.683 0.912C66.9177 0.677333 67.211 0.559999 67.563 0.559999C67.915 0.559999 68.2083 0.672 68.443 0.896C68.6883 1.10933 68.811 1.38133 68.811 1.712C68.811 2.04267 68.6883 2.32 68.443 2.544C68.2083 2.75733 67.915 2.864 67.563 2.864C67.211 2.864 66.9177 2.752 66.683 2.528C66.459 2.29333 66.347 2.02133 66.347 1.712Z" fill="#FF0000"/>
<path d="M71.2202 0.672H74.9802C75.6842 0.672 76.3882 0.789333 77.0922 1.024C77.8069 1.25867 78.4469 1.616 79.0122 2.096C79.5882 2.56533 80.0522 3.15733 80.4042 3.872C80.7562 4.576 80.9322 5.39733 80.9322 6.336C80.9322 7.28533 80.7562 8.112 80.4042 8.816C80.0522 9.52 79.5882 10.112 79.0122 10.592C78.4469 11.0613 77.8069 11.4133 77.0922 11.648C76.3882 11.8827 75.6842 12 74.9802 12H71.2202V0.672ZM72.3722 10.976H74.6602C75.5136 10.976 76.2549 10.8427 76.8842 10.576C77.5242 10.3093 78.0522 9.96267 78.4682 9.536C78.8842 9.09867 79.1936 8.60267 79.3962 8.048C79.6096 7.49333 79.7162 6.92267 79.7162 6.336C79.7162 5.74933 79.6096 5.17867 79.3962 4.624C79.1936 4.06933 78.8842 3.57867 78.4682 3.152C78.0522 2.71467 77.5242 2.36267 76.8842 2.096C76.2549 1.82933 75.5136 1.696 74.6602 1.696H72.3722V10.976ZM84.3216 10.976H90.3856V12H83.1696V0.672H90.1936V1.696H84.3216V5.6H89.8096V6.608H84.3216V10.976ZM97.9664 2.496C97.721 2.15467 97.4064 1.88267 97.0224 1.68C96.6384 1.46667 96.1744 1.36 95.6304 1.36C95.353 1.36 95.0704 1.40267 94.7824 1.488C94.4944 1.57333 94.233 1.70667 93.9984 1.888C93.7637 2.05867 93.5717 2.27733 93.4224 2.544C93.2837 2.81067 93.2144 3.12533 93.2144 3.488C93.2144 3.85067 93.2837 4.14933 93.4224 4.384C93.561 4.61867 93.7424 4.82133 93.9664 4.992C94.201 5.152 94.4624 5.28533 94.7504 5.392C95.049 5.49867 95.3584 5.60533 95.6784 5.712C96.073 5.84 96.4677 5.97867 96.8624 6.128C97.2677 6.27733 97.6304 6.47467 97.9504 6.72C98.2704 6.95467 98.5317 7.25867 98.7344 7.632C98.937 7.99467 99.0384 8.45867 99.0384 9.024C99.0384 9.58933 98.9264 10.08 98.7024 10.496C98.489 10.9013 98.2064 11.2373 97.8544 11.504C97.513 11.7707 97.1184 11.968 96.6704 12.096C96.233 12.224 95.7904 12.288 95.3424 12.288C95.001 12.288 94.6597 12.2507 94.3184 12.176C93.977 12.112 93.6517 12.0107 93.3424 11.872C93.033 11.7333 92.745 11.5573 92.4784 11.344C92.2117 11.1307 91.977 10.8853 91.7744 10.608L92.7664 9.872C93.0117 10.2773 93.353 10.6187 93.7904 10.896C94.2384 11.1627 94.761 11.296 95.3584 11.296C95.6464 11.296 95.9397 11.2533 96.2384 11.168C96.537 11.072 96.8037 10.9333 97.0384 10.752C97.2837 10.56 97.481 10.3307 97.6304 10.064C97.7904 9.78667 97.8704 9.46667 97.8704 9.104C97.8704 8.70933 97.7904 8.384 97.6304 8.128C97.481 7.86133 97.2784 7.64267 97.0224 7.472C96.7664 7.29067 96.473 7.14133 96.1424 7.024C95.8117 6.90667 95.465 6.78933 95.1024 6.672C94.729 6.55467 94.361 6.42133 93.9984 6.272C93.6357 6.12267 93.3104 5.93067 93.0224 5.696C92.7344 5.45067 92.4997 5.152 92.3184 4.8C92.1477 4.448 92.0624 4.016 92.0624 3.504C92.0624 2.96 92.169 2.49067 92.3824 2.096C92.6064 1.70133 92.8944 1.376 93.2464 1.12C93.5984 0.863999 93.9877 0.677333 94.4144 0.559999C94.841 0.442666 95.2624 0.384 95.6784 0.384C96.4464 0.384 97.1024 0.522666 97.6464 0.799999C98.1904 1.06667 98.601 1.38667 98.8784 1.76L97.9664 2.496ZM102.502 12H101.35V0.672H102.502V12ZM113.938 2.704C113.543 2.288 113.074 1.968 112.53 1.744C111.986 1.50933 111.362 1.392 110.658 1.392C109.933 1.392 109.277 1.52533 108.69 1.792C108.114 2.05867 107.623 2.42133 107.218 2.88C106.813 3.328 106.498 3.85067 106.274 4.448C106.061 5.04533 105.954 5.67467 105.954 6.336C105.954 6.99733 106.061 7.62667 106.274 8.224C106.498 8.82133 106.813 9.344 107.218 9.792C107.623 10.24 108.114 10.5973 108.69 10.864C109.277 11.1307 109.933 11.264 110.658 11.264C111.298 11.264 111.885 11.1947 112.418 11.056C112.951 10.9173 113.383 10.7413 113.714 10.528V7.088H111.074V6.08H114.866V11.184C114.247 11.5573 113.581 11.8347 112.866 12.016C112.151 12.1973 111.41 12.288 110.642 12.288C109.789 12.288 108.999 12.1387 108.274 11.84C107.549 11.5413 106.925 11.1307 106.402 10.608C105.879 10.0747 105.469 9.44533 105.17 8.72C104.882 7.99467 104.738 7.2 104.738 6.336C104.738 5.472 104.887 4.67733 105.186 3.952C105.485 3.22667 105.895 2.60267 106.418 2.08C106.951 1.54667 107.575 1.13067 108.29 0.832C109.015 0.533333 109.799 0.384 110.642 0.384C111.549 0.384 112.338 0.517333 113.01 0.783999C113.682 1.05067 114.258 1.424 114.738 1.904L113.938 2.704ZM125.687 10.32H125.719V0.672H126.871V12H125.431L118.839 2.256H118.807V12H117.655V0.672H119.095L125.687 10.32Z" fill="#A3A3A3"/>
</svg>
