<svg width="134" height="13" viewBox="0 0 134 13" fill="none" xmlns="http://www.w3.org/2000/svg">
<path d="M0.248 0.672H3.4L6.344 8.72H6.392L9.304 0.672H12.472V12H10.472V2.896H10.44L7 12H5.592L2.2 2.896H2.168V12H0.248V0.672ZM18.5188 0.672H20.2628L25.1428 12H22.8388L21.7828 9.408H16.8708L15.8468 12H13.5907L18.5188 0.672ZM21.0788 7.68L19.3348 3.072L17.5588 7.68H21.0788ZM26.2636 0.672H30.1996C30.733 0.672 31.2503 0.730666 31.7516 0.848C32.253 0.954666 32.6956 1.136 33.0796 1.392C33.4743 1.648 33.789 1.984 34.0236 2.4C34.2583 2.816 34.3756 3.32267 34.3756 3.92C34.3756 4.74133 34.141 5.41333 33.6716 5.936C33.213 6.448 32.5836 6.79467 31.7836 6.976L34.8076 12H32.3756L29.7516 7.2H28.2796V12H26.2636V0.672ZM29.9276 5.552C30.2156 5.552 30.5036 5.53067 30.7916 5.488C31.0796 5.44533 31.3356 5.36533 31.5596 5.248C31.7943 5.13067 31.9863 4.96533 32.1356 4.752C32.285 4.528 32.3596 4.24533 32.3596 3.904C32.3596 3.59467 32.2903 3.344 32.1516 3.152C32.013 2.94933 31.837 2.78933 31.6236 2.672C31.4103 2.55467 31.165 2.47467 30.8876 2.432C30.621 2.38933 30.3596 2.368 30.1036 2.368H28.2796V5.552H29.9276ZM44.5021 3.328C44.2035 2.92267 43.8141 2.62933 43.3341 2.448C42.8541 2.256 42.3848 2.16 41.9261 2.16C41.3395 2.16 40.8061 2.26667 40.3261 2.48C39.8461 2.69333 39.4301 2.98667 39.0781 3.36C38.7368 3.73333 38.4701 4.17067 38.2781 4.672C38.0968 5.17333 38.0061 5.71733 38.0061 6.304C38.0061 6.92267 38.0968 7.488 38.2781 8C38.4595 8.512 38.7155 8.95467 39.0461 9.328C39.3875 9.69067 39.7928 9.97333 40.2621 10.176C40.7315 10.3787 41.2595 10.48 41.8461 10.48C42.4541 10.48 42.9928 10.3627 43.4621 10.128C43.9315 9.88267 44.3101 9.56267 44.5981 9.168L46.2141 10.304C45.7128 10.9333 45.0995 11.424 44.3741 11.776C43.6488 12.1173 42.8008 12.288 41.8301 12.288C40.9448 12.288 40.1288 12.144 39.3821 11.856C38.6461 11.5573 38.0115 11.1467 37.4781 10.624C36.9448 10.0907 36.5288 9.46133 36.2301 8.736C35.9315 8 35.7821 7.18933 35.7821 6.304C35.7821 5.39733 35.9368 4.58133 36.2461 3.856C36.5661 3.12 36.9981 2.496 37.5421 1.984C38.0968 1.472 38.7475 1.07733 39.4941 0.799999C40.2408 0.522666 41.0515 0.384 41.9261 0.384C42.2888 0.384 42.6675 0.421333 43.0621 0.495999C43.4568 0.559999 43.8355 0.666666 44.1981 0.815999C44.5608 0.954666 44.9021 1.13067 45.2221 1.344C45.5421 1.55733 45.8141 1.81333 46.0381 2.112L44.5021 3.328ZM56.4908 7.84C56.4908 8.52267 56.3734 9.14133 56.1388 9.696C55.9041 10.24 55.5841 10.704 55.1788 11.088C54.7734 11.472 54.2934 11.7707 53.7388 11.984C53.1841 12.1867 52.5814 12.288 51.9308 12.288C51.2801 12.288 50.6774 12.1867 50.1228 11.984C49.5681 11.7707 49.0828 11.472 48.6668 11.088C48.2614 10.704 47.9414 10.24 47.7068 9.696C47.4828 9.14133 47.3708 8.52267 47.3708 7.84V0.672H49.3868V7.76C49.3868 8.09067 49.4294 8.42133 49.5148 8.752C49.6001 9.072 49.7388 9.36 49.9308 9.616C50.1334 9.872 50.3948 10.08 50.7148 10.24C51.0454 10.4 51.4508 10.48 51.9308 10.48C52.4108 10.48 52.8108 10.4 53.1308 10.24C53.4614 10.08 53.7228 9.872 53.9148 9.616C54.1174 9.36 54.2614 9.072 54.3468 8.752C54.4321 8.42133 54.4748 8.09067 54.4748 7.76V0.672H56.4908V7.84ZM64.6646 3.04C64.4513 2.76267 64.1473 2.53333 63.7526 2.352C63.3686 2.16 62.9793 2.064 62.5846 2.064C62.35 2.064 62.1153 2.096 61.8806 2.16C61.646 2.21333 61.4326 2.304 61.2406 2.432C61.0486 2.54933 60.8886 2.70933 60.7606 2.912C60.6433 3.104 60.5846 3.33867 60.5846 3.616C60.5846 3.872 60.638 4.09067 60.7446 4.272C60.8513 4.45333 60.9953 4.608 61.1766 4.736C61.3686 4.864 61.598 4.976 61.8646 5.072C62.1313 5.168 62.4246 5.264 62.7446 5.36C63.1073 5.47733 63.4806 5.61067 63.8646 5.76C64.2593 5.90933 64.6166 6.10667 64.9366 6.352C65.2673 6.59733 65.534 6.90667 65.7366 7.28C65.95 7.65333 66.0566 8.11733 66.0566 8.672C66.0566 9.28 65.9446 9.81333 65.7206 10.272C65.4966 10.72 65.198 11.0933 64.8246 11.392C64.4513 11.6907 64.014 11.9147 63.5126 12.064C63.0113 12.2133 62.4833 12.288 61.9286 12.288C61.1926 12.288 60.4726 12.1547 59.7686 11.888C59.0646 11.6107 58.4886 11.2053 58.0406 10.672L59.4806 9.328C59.758 9.712 60.126 10.016 60.5846 10.24C61.054 10.464 61.5126 10.576 61.9606 10.576C62.1953 10.576 62.4353 10.5493 62.6806 10.496C62.926 10.432 63.1446 10.3307 63.3366 10.192C63.5393 10.0533 63.6993 9.88267 63.8166 9.68C63.9446 9.46667 64.0086 9.20533 64.0086 8.896C64.0086 8.59733 63.9393 8.352 63.8006 8.16C63.662 7.95733 63.4753 7.78667 63.2406 7.648C63.006 7.49867 62.7286 7.37067 62.4086 7.264C62.0886 7.15733 61.7526 7.04533 61.4006 6.928C61.0593 6.82133 60.718 6.69333 60.3766 6.544C60.0353 6.39467 59.726 6.19733 59.4486 5.952C59.182 5.70667 58.9633 5.408 58.7926 5.056C58.622 4.69333 58.5366 4.24533 58.5366 3.712C58.5366 3.136 58.654 2.64 58.8886 2.224C59.134 1.808 59.4486 1.46667 59.8326 1.2C60.2273 0.922666 60.67 0.719999 61.1606 0.591999C61.662 0.453333 62.1686 0.384 62.6806 0.384C63.2566 0.384 63.838 0.485333 64.4246 0.688C65.022 0.890666 65.5393 1.19467 65.9766 1.6L64.6646 3.04Z" fill="#FF0000"/>
<path d="M68.3321 0.672H71.5321C72.1081 0.672 72.6308 0.736 73.1001 0.863999C73.5695 0.981332 73.9695 1.168 74.3001 1.424C74.6415 1.66933 74.9028 1.984 75.0841 2.368C75.2655 2.74133 75.3561 3.184 75.3561 3.696C75.3561 4.208 75.2601 4.656 75.0681 5.04C74.8868 5.41333 74.6255 5.728 74.2841 5.984C73.9535 6.22933 73.5481 6.416 73.0681 6.544C72.5988 6.672 72.0761 6.736 71.5001 6.736H69.4841V12H68.3321V0.672ZM69.4841 5.76H71.4361C72.3428 5.76 73.0308 5.584 73.5001 5.232C73.9695 4.88 74.2041 4.368 74.2041 3.696C74.2041 2.992 73.9588 2.48 73.4681 2.16C72.9881 1.82933 72.3108 1.664 71.4361 1.664H69.4841V5.76ZM78.7654 12H77.6134V0.672H80.9414C81.496 0.672 82.008 0.725333 82.4774 0.832C82.9574 0.938666 83.368 1.11467 83.7094 1.36C84.0614 1.59467 84.3334 1.904 84.5254 2.288C84.7174 2.672 84.8134 3.14133 84.8134 3.696C84.8134 4.112 84.7387 4.49067 84.5894 4.832C84.44 5.17333 84.2374 5.472 83.9814 5.728C83.7254 5.97333 83.4214 6.17067 83.0694 6.32C82.7174 6.46933 82.3334 6.56533 81.9174 6.608L85.2294 12H83.8214L80.6854 6.704H78.7654V12ZM78.7654 5.712H80.7654C81.6934 5.712 82.408 5.54667 82.9094 5.216C83.4107 4.87467 83.6614 4.368 83.6614 3.696C83.6614 3.32267 83.592 3.008 83.4534 2.752C83.3147 2.496 83.1227 2.288 82.8774 2.128C82.632 1.968 82.3334 1.85067 81.9814 1.776C81.6294 1.70133 81.24 1.664 80.8134 1.664H78.7654V5.712ZM98.3915 6.336C98.3915 7.2 98.2422 7.99467 97.9435 8.72C97.6448 9.44533 97.2288 10.0747 96.6955 10.608C96.1728 11.1307 95.5488 11.5413 94.8235 11.84C94.1088 12.1387 93.3302 12.288 92.4875 12.288C91.6448 12.288 90.8608 12.1387 90.1355 11.84C89.4208 11.5413 88.7968 11.1307 88.2635 10.608C87.7408 10.0747 87.3302 9.44533 87.0315 8.72C86.7328 7.99467 86.5835 7.2 86.5835 6.336C86.5835 5.472 86.7328 4.67733 87.0315 3.952C87.3302 3.22667 87.7408 2.60267 88.2635 2.08C88.7968 1.54667 89.4208 1.13067 90.1355 0.832C90.8608 0.533333 91.6448 0.384 92.4875 0.384C93.3302 0.384 94.1088 0.533333 94.8235 0.832C95.5488 1.13067 96.1728 1.54667 96.6955 2.08C97.2288 2.60267 97.6448 3.22667 97.9435 3.952C98.2422 4.67733 98.3915 5.472 98.3915 6.336ZM97.1755 6.336C97.1755 5.67467 97.0688 5.04533 96.8555 4.448C96.6422 3.85067 96.3328 3.328 95.9275 2.88C95.5222 2.42133 95.0262 2.05867 94.4395 1.792C93.8635 1.52533 93.2128 1.392 92.4875 1.392C91.7622 1.392 91.1062 1.52533 90.5195 1.792C89.9435 2.05867 89.4528 2.42133 89.0475 2.88C88.6422 3.328 88.3328 3.85067 88.1195 4.448C87.9062 5.04533 87.7995 5.67467 87.7995 6.336C87.7995 6.99733 87.9062 7.62667 88.1195 8.224C88.3328 8.82133 88.6422 9.344 89.0475 9.792C89.4528 10.24 89.9435 10.5973 90.5195 10.864C91.1062 11.1307 91.7622 11.264 92.4875 11.264C93.2128 11.264 93.8635 11.1307 94.4395 10.864C95.0262 10.5973 95.5222 10.24 95.9275 9.792C96.3328 9.344 96.6422 8.82133 96.8555 8.224C97.0688 7.62667 97.1755 6.99733 97.1755 6.336ZM101.937 12H100.785V0.672H101.937V12ZM106.094 10.976H112.158V12H104.942V0.672H111.966V1.696H106.094V5.6H111.582V6.608H106.094V10.976ZM118.042 12H116.89V1.696H113.098V0.672H121.834V1.696H118.042V12ZM127.167 12H126.015V1.696H122.223V0.672H130.959V1.696H127.167V12ZM133.513 12H132.425V4.512H133.513V12ZM133.737 1.632C133.737 1.856 133.657 2.04267 133.497 2.192C133.337 2.33067 133.161 2.4 132.969 2.4C132.777 2.4 132.601 2.33067 132.441 2.192C132.281 2.04267 132.201 1.856 132.201 1.632C132.201 1.408 132.281 1.22667 132.441 1.088C132.601 0.938666 132.777 0.863999 132.969 0.863999C133.161 0.863999 133.337 0.938666 133.497 1.088C133.657 1.22667 133.737 1.408 133.737 1.632Z" fill="#919191"/>
</svg>
